ISO-10303-21;
HEADER;
/* Generated by software containing ST-Developer
 * from STEP Tools, Inc. (www.steptools.com) 
 */

FILE_DESCRIPTION(
/* description */ (''),
/* implementation_level */ '2;1');

FILE_NAME(
/* name */ 'box.step',
/* time_stamp */ '2026-06-08T20:22:28+02:00',
/* author */ (''),
/* organization */ (''),
/* preprocessor_version */ 'ST-DEVELOPER v20.1',
/* originating_system */ 'Autodesk Translation Framework v15.8.0.0',
/* authorisation */ '');

FILE_SCHEMA (('AUTOMOTIVE_DESIGN { 1 0 10303 214 3 1 1 }'));
ENDSEC;

DATA;
#10=MECHANICAL_DESIGN_GEOMETRIC_PRESENTATION_REPRESENTATION('',(#13),#1340);
#11=SHAPE_REPRESENTATION_RELATIONSHIP('SRR','None',#1347,#12);
#12=ADVANCED_BREP_SHAPE_REPRESENTATION('',(#14),#1339);
#13=STYLED_ITEM('',(#1356),#14);
#14=MANIFOLD_SOLID_BREP('Body1',#784);
#15=FACE_BOUND('',#109,.T.);
#16=FACE_BOUND('',#111,.T.);
#17=FACE_BOUND('',#112,.T.);
#18=FACE_BOUND('',#113,.T.);
#19=FACE_BOUND('',#114,.T.);
#20=FACE_BOUND('',#118,.T.);
#21=FACE_BOUND('',#123,.T.);
#22=FACE_BOUND('',#128,.T.);
#23=FACE_BOUND('',#132,.T.);
#24=FACE_BOUND('',#133,.T.);
#25=FACE_BOUND('',#134,.T.);
#26=FACE_BOUND('',#142,.T.);
#27=FACE_BOUND('',#156,.T.);
#28=FACE_BOUND('',#158,.T.);
#29=FACE_BOUND('',#159,.T.);
#30=FACE_BOUND('',#160,.T.);
#31=PLANE('',#807);
#32=PLANE('',#814);
#33=PLANE('',#815);
#34=PLANE('',#824);
#35=PLANE('',#825);
#36=PLANE('',#831);
#37=PLANE('',#832);
#38=PLANE('',#838);
#39=PLANE('',#839);
#40=PLANE('',#843);
#41=PLANE('',#844);
#42=PLANE('',#850);
#43=PLANE('',#853);
#44=PLANE('',#856);
#45=PLANE('',#861);
#46=PLANE('',#864);
#47=PLANE('',#867);
#48=PLANE('',#870);
#49=PLANE('',#873);
#50=PLANE('',#874);
#51=PLANE('',#875);
#52=PLANE('',#876);
#53=PLANE('',#877);
#54=PLANE('',#878);
#55=PLANE('',#879);
#56=PLANE('',#880);
#57=FACE_OUTER_BOUND('',#102,.T.);
#58=FACE_OUTER_BOUND('',#103,.T.);
#59=FACE_OUTER_BOUND('',#104,.T.);
#60=FACE_OUTER_BOUND('',#105,.T.);
#61=FACE_OUTER_BOUND('',#106,.T.);
#62=FACE_OUTER_BOUND('',#107,.T.);
#63=FACE_OUTER_BOUND('',#108,.T.);
#64=FACE_OUTER_BOUND('',#110,.T.);
#65=FACE_OUTER_BOUND('',#115,.T.);
#66=FACE_OUTER_BOUND('',#116,.T.);
#67=FACE_OUTER_BOUND('',#117,.T.);
#68=FACE_OUTER_BOUND('',#119,.T.);
#69=FACE_OUTER_BOUND('',#120,.T.);
#70=FACE_OUTER_BOUND('',#121,.T.);
#71=FACE_OUTER_BOUND('',#122,.T.);
#72=FACE_OUTER_BOUND('',#124,.T.);
#73=FACE_OUTER_BOUND('',#125,.T.);
#74=FACE_OUTER_BOUND('',#126,.T.);
#75=FACE_OUTER_BOUND('',#127,.T.);
#76=FACE_OUTER_BOUND('',#129,.T.);
#77=FACE_OUTER_BOUND('',#130,.T.);
#78=FACE_OUTER_BOUND('',#131,.T.);
#79=FACE_OUTER_BOUND('',#135,.T.);
#80=FACE_OUTER_BOUND('',#136,.T.);
#81=FACE_OUTER_BOUND('',#137,.T.);
#82=FACE_OUTER_BOUND('',#138,.T.);
#83=FACE_OUTER_BOUND('',#139,.T.);
#84=FACE_OUTER_BOUND('',#140,.T.);
#85=FACE_OUTER_BOUND('',#141,.T.);
#86=FACE_OUTER_BOUND('',#143,.T.);
#87=FACE_OUTER_BOUND('',#144,.T.);
#88=FACE_OUTER_BOUND('',#145,.T.);
#89=FACE_OUTER_BOUND('',#146,.T.);
#90=FACE_OUTER_BOUND('',#147,.T.);
#91=FACE_OUTER_BOUND('',#148,.T.);
#92=FACE_OUTER_BOUND('',#149,.T.);
#93=FACE_OUTER_BOUND('',#150,.T.);
#94=FACE_OUTER_BOUND('',#151,.T.);
#95=FACE_OUTER_BOUND('',#152,.T.);
#96=FACE_OUTER_BOUND('',#153,.T.);
#97=FACE_OUTER_BOUND('',#154,.T.);
#98=FACE_OUTER_BOUND('',#155,.T.);
#99=FACE_OUTER_BOUND('',#157,.T.);
#100=FACE_OUTER_BOUND('',#161,.T.);
#101=FACE_OUTER_BOUND('',#162,.T.);
#102=EDGE_LOOP('',(#510,#511,#512,#513));
#103=EDGE_LOOP('',(#514,#515,#516,#517));
#104=EDGE_LOOP('',(#518,#519,#520,#521));
#105=EDGE_LOOP('',(#522,#523,#524,#525));
#106=EDGE_LOOP('',(#526,#527,#528,#529));
#107=EDGE_LOOP('',(#530,#531,#532,#533));
#108=EDGE_LOOP('',(#534));
#109=EDGE_LOOP('',(#535));
#110=EDGE_LOOP('',(#536,#537,#538,#539));
#111=EDGE_LOOP('',(#540));
#112=EDGE_LOOP('',(#541));
#113=EDGE_LOOP('',(#542));
#114=EDGE_LOOP('',(#543));
#115=EDGE_LOOP('',(#544,#545,#546,#547));
#116=EDGE_LOOP('',(#548,#549,#550,#551));
#117=EDGE_LOOP('',(#552));
#118=EDGE_LOOP('',(#553));
#119=EDGE_LOOP('',(#554));
#120=EDGE_LOOP('',(#555,#556,#557,#558));
#121=EDGE_LOOP('',(#559,#560,#561,#562));
#122=EDGE_LOOP('',(#563));
#123=EDGE_LOOP('',(#564));
#124=EDGE_LOOP('',(#565));
#125=EDGE_LOOP('',(#566,#567,#568,#569));
#126=EDGE_LOOP('',(#570,#571,#572,#573));
#127=EDGE_LOOP('',(#574));
#128=EDGE_LOOP('',(#575));
#129=EDGE_LOOP('',(#576));
#130=EDGE_LOOP('',(#577,#578,#579,#580));
#131=EDGE_LOOP('',(#581,#582,#583,#584));
#132=EDGE_LOOP('',(#585));
#133=EDGE_LOOP('',(#586));
#134=EDGE_LOOP('',(#587));
#135=EDGE_LOOP('',(#588,#589,#590,#591,#592,#593,#594,#595,#596,#597,#598,
#599,#600,#601,#602,#603));
#136=EDGE_LOOP('',(#604,#605,#606,#607));
#137=EDGE_LOOP('',(#608,#609,#610,#611,#612,#613,#614,#615));
#138=EDGE_LOOP('',(#616,#617,#618,#619));
#139=EDGE_LOOP('',(#620,#621,#622,#623));
#140=EDGE_LOOP('',(#624,#625,#626,#627));
#141=EDGE_LOOP('',(#628,#629,#630,#631));
#142=EDGE_LOOP('',(#632,#633,#634,#635,#636,#637,#638,#639));
#143=EDGE_LOOP('',(#640,#641,#642,#643));
#144=EDGE_LOOP('',(#644,#645,#646,#647));
#145=EDGE_LOOP('',(#648,#649,#650,#651));
#146=EDGE_LOOP('',(#652,#653,#654,#655));
#147=EDGE_LOOP('',(#656,#657,#658,#659));
#148=EDGE_LOOP('',(#660,#661,#662,#663));
#149=EDGE_LOOP('',(#664,#665,#666,#667));
#150=EDGE_LOOP('',(#668,#669,#670,#671));
#151=EDGE_LOOP('',(#672,#673,#674,#675,#676,#677,#678,#679));
#152=EDGE_LOOP('',(#680,#681,#682,#683));
#153=EDGE_LOOP('',(#684,#685,#686,#687));
#154=EDGE_LOOP('',(#688,#689,#690,#691));
#155=EDGE_LOOP('',(#692,#693,#694,#695));
#156=EDGE_LOOP('',(#696,#697,#698,#699,#700,#701,#702,#703));
#157=EDGE_LOOP('',(#704,#705,#706,#707));
#158=EDGE_LOOP('',(#708));
#159=EDGE_LOOP('',(#709));
#160=EDGE_LOOP('',(#710));
#161=EDGE_LOOP('',(#711));
#162=EDGE_LOOP('',(#712,#713,#714,#715,#716,#717,#718,#719));
#163=LINE('',#1121,#230);
#164=LINE('',#1127,#231);
#165=LINE('',#1133,#232);
#166=LINE('',#1138,#233);
#167=LINE('',#1140,#234);
#168=LINE('',#1142,#235);
#169=LINE('',#1143,#236);
#170=LINE('',#1148,#237);
#171=LINE('',#1154,#238);
#172=LINE('',#1160,#239);
#173=LINE('',#1162,#240);
#174=LINE('',#1164,#241);
#175=LINE('',#1165,#242);
#176=LINE('',#1176,#243);
#177=LINE('',#1181,#244);
#178=LINE('',#1188,#245);
#179=LINE('',#1193,#246);
#180=LINE('',#1200,#247);
#181=LINE('',#1205,#248);
#182=LINE('',#1213,#249);
#183=LINE('',#1216,#250);
#184=LINE('',#1219,#251);
#185=LINE('',#1221,#252);
#186=LINE('',#1222,#253);
#187=LINE('',#1225,#254);
#188=LINE('',#1229,#255);
#189=LINE('',#1232,#256);
#190=LINE('',#1234,#257);
#191=LINE('',#1236,#258);
#192=LINE('',#1238,#259);
#193=LINE('',#1240,#260);
#194=LINE('',#1242,#261);
#195=LINE('',#1244,#262);
#196=LINE('',#1246,#263);
#197=LINE('',#1250,#264);
#198=LINE('',#1254,#265);
#199=LINE('',#1255,#266);
#200=LINE('',#1257,#267);
#201=LINE('',#1258,#268);
#202=LINE('',#1261,#269);
#203=LINE('',#1265,#270);
#204=LINE('',#1266,#271);
#205=LINE('',#1269,#272);
#206=LINE('',#1272,#273);
#207=LINE('',#1275,#274);
#208=LINE('',#1279,#275);
#209=LINE('',#1283,#276);
#210=LINE('',#1287,#277);
#211=LINE('',#1292,#278);
#212=LINE('',#1293,#279);
#213=LINE('',#1294,#280);
#214=LINE('',#1298,#281);
#215=LINE('',#1301,#282);
#216=LINE('',#1302,#283);
#217=LINE('',#1306,#284);
#218=LINE('',#1309,#285);
#219=LINE('',#1310,#286);
#220=LINE('',#1314,#287);
#221=LINE('',#1317,#288);
#222=LINE('',#1318,#289);
#223=LINE('',#1323,#290);
#224=LINE('',#1324,#291);
#225=LINE('',#1325,#292);
#226=LINE('',#1326,#293);
#227=LINE('',#1328,#294);
#228=LINE('',#1331,#295);
#229=LINE('',#1333,#296);
#230=VECTOR('',#887,0.573368538807928);
#231=VECTOR('',#894,0.573368538807928);
#232=VECTOR('',#901,0.573368538807928);
#233=VECTOR('',#906,10.);
#234=VECTOR('',#907,10.);
#235=VECTOR('',#908,10.);
#236=VECTOR('',#909,10.);
#237=VECTOR('',#914,0.750000000000002);
#238=VECTOR('',#921,2.50000254000501);
#239=VECTOR('',#928,10.);
#240=VECTOR('',#929,10.);
#241=VECTOR('',#930,10.);
#242=VECTOR('',#931,10.);
#243=VECTOR('',#942,0.75);
#244=VECTOR('',#949,2.500002540005);
#245=VECTOR('',#958,0.750000000000002);
#246=VECTOR('',#965,2.50000254000501);
#247=VECTOR('',#974,0.750000000000001);
#248=VECTOR('',#981,2.500002540005);
#249=VECTOR('',#990,10.);
#250=VECTOR('',#993,10.);
#251=VECTOR('',#996,10.);
#252=VECTOR('',#997,10.);
#253=VECTOR('',#998,10.);
#254=VECTOR('',#1001,10.);
#255=VECTOR('',#1004,10.);
#256=VECTOR('',#1007,10.);
#257=VECTOR('',#1008,10.);
#258=VECTOR('',#1009,10.);
#259=VECTOR('',#1010,10.);
#260=VECTOR('',#1011,10.);
#261=VECTOR('',#1012,10.);
#262=VECTOR('',#1013,10.);
#263=VECTOR('',#1014,10.);
#264=VECTOR('',#1019,10.);
#265=VECTOR('',#1024,10.);
#266=VECTOR('',#1025,10.);
#267=VECTOR('',#1026,10.);
#268=VECTOR('',#1027,10.);
#269=VECTOR('',#1030,10.);
#270=VECTOR('',#1035,10.);
#271=VECTOR('',#1036,10.);
#272=VECTOR('',#1039,10.);
#273=VECTOR('',#1044,10.);
#274=VECTOR('',#1045,10.);
#275=VECTOR('',#1048,10.);
#276=VECTOR('',#1051,10.);
#277=VECTOR('',#1054,10.);
#278=VECTOR('',#1059,10.);
#279=VECTOR('',#1060,10.);
#280=VECTOR('',#1061,10.);
#281=VECTOR('',#1066,10.);
#282=VECTOR('',#1069,10.);
#283=VECTOR('',#1070,10.);
#284=VECTOR('',#1075,10.);
#285=VECTOR('',#1078,10.);
#286=VECTOR('',#1079,10.);
#287=VECTOR('',#1084,10.);
#288=VECTOR('',#1087,10.);
#289=VECTOR('',#1088,10.);
#290=VECTOR('',#1095,10.);
#291=VECTOR('',#1096,10.);
#292=VECTOR('',#1097,10.);
#293=VECTOR('',#1098,10.);
#294=VECTOR('',#1101,10.);
#295=VECTOR('',#1106,10.);
#296=VECTOR('',#1109,10.);
#297=CIRCLE('',#799,1.07336853880793);
#298=CIRCLE('',#800,1.07336853880793);
#299=CIRCLE('',#802,1.07336853880793);
#300=CIRCLE('',#803,1.07336853880793);
#301=CIRCLE('',#805,1.07336853880793);
#302=CIRCLE('',#806,1.07336853880793);
#303=CIRCLE('',#809,0.750000000000002);
#304=CIRCLE('',#810,0.750000000000002);
#305=CIRCLE('',#812,2.50000254000501);
#306=CIRCLE('',#813,2.50000254000501);
#307=CIRCLE('',#816,2.500002540005);
#308=CIRCLE('',#817,2.500002540005);
#309=CIRCLE('',#818,2.50000254000501);
#310=CIRCLE('',#820,0.75);
#311=CIRCLE('',#821,0.75);
#312=CIRCLE('',#823,2.500002540005);
#313=CIRCLE('',#827,0.750000000000002);
#314=CIRCLE('',#828,0.750000000000002);
#315=CIRCLE('',#830,2.50000254000501);
#316=CIRCLE('',#834,0.750000000000001);
#317=CIRCLE('',#835,0.750000000000001);
#318=CIRCLE('',#837,2.500002540005);
#319=CIRCLE('',#841,1.);
#320=CIRCLE('',#842,1.);
#321=CIRCLE('',#845,1.);
#322=CIRCLE('',#846,1.);
#323=CIRCLE('',#847,1.);
#324=CIRCLE('',#849,1.);
#325=CIRCLE('',#852,1.);
#326=CIRCLE('',#855,1.);
#327=CIRCLE('',#857,1.16999998829034);
#328=CIRCLE('',#858,1.16999998829);
#329=CIRCLE('',#859,1.16999998829);
#330=CIRCLE('',#860,1.16999998828983);
#331=CIRCLE('',#863,1.16999998828983);
#332=CIRCLE('',#866,1.16999998829);
#333=CIRCLE('',#869,1.16999998829);
#334=CIRCLE('',#872,1.16999998829034);
#335=VERTEX_POINT('',#1118);
#336=VERTEX_POINT('',#1120);
#337=VERTEX_POINT('',#1124);
#338=VERTEX_POINT('',#1126);
#339=VERTEX_POINT('',#1130);
#340=VERTEX_POINT('',#1132);
#341=VERTEX_POINT('',#1136);
#342=VERTEX_POINT('',#1137);
#343=VERTEX_POINT('',#1139);
#344=VERTEX_POINT('',#1141);
#345=VERTEX_POINT('',#1145);
#346=VERTEX_POINT('',#1147);
#347=VERTEX_POINT('',#1151);
#348=VERTEX_POINT('',#1153);
#349=VERTEX_POINT('',#1158);
#350=VERTEX_POINT('',#1159);
#351=VERTEX_POINT('',#1161);
#352=VERTEX_POINT('',#1163);
#353=VERTEX_POINT('',#1166);
#354=VERTEX_POINT('',#1168);
#355=VERTEX_POINT('',#1170);
#356=VERTEX_POINT('',#1173);
#357=VERTEX_POINT('',#1175);
#358=VERTEX_POINT('',#1179);
#359=VERTEX_POINT('',#1185);
#360=VERTEX_POINT('',#1187);
#361=VERTEX_POINT('',#1191);
#362=VERTEX_POINT('',#1197);
#363=VERTEX_POINT('',#1199);
#364=VERTEX_POINT('',#1203);
#365=VERTEX_POINT('',#1209);
#366=VERTEX_POINT('',#1210);
#367=VERTEX_POINT('',#1212);
#368=VERTEX_POINT('',#1214);
#369=VERTEX_POINT('',#1218);
#370=VERTEX_POINT('',#1220);
#371=VERTEX_POINT('',#1224);
#372=VERTEX_POINT('',#1226);
#373=VERTEX_POINT('',#1228);
#374=VERTEX_POINT('',#1230);
#375=VERTEX_POINT('',#1233);
#376=VERTEX_POINT('',#1235);
#377=VERTEX_POINT('',#1237);
#378=VERTEX_POINT('',#1239);
#379=VERTEX_POINT('',#1241);
#380=VERTEX_POINT('',#1243);
#381=VERTEX_POINT('',#1245);
#382=VERTEX_POINT('',#1249);
#383=VERTEX_POINT('',#1253);
#384=VERTEX_POINT('',#1256);
#385=VERTEX_POINT('',#1260);
#386=VERTEX_POINT('',#1264);
#387=VERTEX_POINT('',#1268);
#388=VERTEX_POINT('',#1273);
#389=VERTEX_POINT('',#1274);
#390=VERTEX_POINT('',#1276);
#391=VERTEX_POINT('',#1278);
#392=VERTEX_POINT('',#1280);
#393=VERTEX_POINT('',#1282);
#394=VERTEX_POINT('',#1284);
#395=VERTEX_POINT('',#1286);
#396=VERTEX_POINT('',#1290);
#397=VERTEX_POINT('',#1291);
#398=VERTEX_POINT('',#1296);
#399=VERTEX_POINT('',#1300);
#400=VERTEX_POINT('',#1304);
#401=VERTEX_POINT('',#1308);
#402=VERTEX_POINT('',#1312);
#403=VERTEX_POINT('',#1316);
#404=VERTEX_POINT('',#1322);
#405=EDGE_CURVE('',#335,#335,#297,.T.);
#406=EDGE_CURVE('',#335,#336,#163,.T.);
#407=EDGE_CURVE('',#336,#336,#298,.F.);
#408=EDGE_CURVE('',#337,#337,#299,.T.);
#409=EDGE_CURVE('',#337,#338,#164,.T.);
#410=EDGE_CURVE('',#338,#338,#300,.F.);
#411=EDGE_CURVE('',#339,#339,#301,.T.);
#412=EDGE_CURVE('',#339,#340,#165,.T.);
#413=EDGE_CURVE('',#340,#340,#302,.F.);
#414=EDGE_CURVE('',#341,#342,#166,.T.);
#415=EDGE_CURVE('',#341,#343,#167,.T.);
#416=EDGE_CURVE('',#344,#343,#168,.T.);
#417=EDGE_CURVE('',#342,#344,#169,.T.);
#418=EDGE_CURVE('',#345,#345,#303,.T.);
#419=EDGE_CURVE('',#345,#346,#170,.T.);
#420=EDGE_CURVE('',#346,#346,#304,.T.);
#421=EDGE_CURVE('',#347,#347,#305,.T.);
#422=EDGE_CURVE('',#347,#348,#171,.T.);
#423=EDGE_CURVE('',#348,#348,#306,.T.);
#424=EDGE_CURVE('',#349,#350,#172,.T.);
#425=EDGE_CURVE('',#351,#350,#173,.T.);
#426=EDGE_CURVE('',#351,#352,#174,.T.);
#427=EDGE_CURVE('',#349,#352,#175,.T.);
#428=EDGE_CURVE('',#353,#353,#307,.T.);
#429=EDGE_CURVE('',#354,#354,#308,.T.);
#430=EDGE_CURVE('',#355,#355,#309,.T.);
#431=EDGE_CURVE('',#356,#356,#310,.T.);
#432=EDGE_CURVE('',#356,#357,#176,.T.);
#433=EDGE_CURVE('',#357,#357,#311,.T.);
#434=EDGE_CURVE('',#358,#358,#312,.T.);
#435=EDGE_CURVE('',#358,#353,#177,.T.);
#436=EDGE_CURVE('',#359,#359,#313,.T.);
#437=EDGE_CURVE('',#359,#360,#178,.T.);
#438=EDGE_CURVE('',#360,#360,#314,.T.);
#439=EDGE_CURVE('',#361,#361,#315,.T.);
#440=EDGE_CURVE('',#361,#355,#179,.T.);
#441=EDGE_CURVE('',#362,#362,#316,.T.);
#442=EDGE_CURVE('',#362,#363,#180,.T.);
#443=EDGE_CURVE('',#363,#363,#317,.T.);
#444=EDGE_CURVE('',#364,#364,#318,.T.);
#445=EDGE_CURVE('',#364,#354,#181,.T.);
#446=EDGE_CURVE('',#365,#366,#319,.T.);
#447=EDGE_CURVE('',#366,#367,#182,.T.);
#448=EDGE_CURVE('',#367,#368,#320,.T.);
#449=EDGE_CURVE('',#368,#365,#183,.T.);
#450=EDGE_CURVE('',#366,#369,#184,.T.);
#451=EDGE_CURVE('',#370,#369,#185,.T.);
#452=EDGE_CURVE('',#370,#367,#186,.T.);
#453=EDGE_CURVE('',#371,#365,#187,.T.);
#454=EDGE_CURVE('',#372,#371,#321,.T.);
#455=EDGE_CURVE('',#373,#372,#188,.T.);
#456=EDGE_CURVE('',#374,#373,#322,.T.);
#457=EDGE_CURVE('',#342,#374,#189,.T.);
#458=EDGE_CURVE('',#344,#375,#190,.T.);
#459=EDGE_CURVE('',#375,#376,#191,.T.);
#460=EDGE_CURVE('',#376,#377,#192,.T.);
#461=EDGE_CURVE('',#377,#378,#193,.T.);
#462=EDGE_CURVE('',#378,#379,#194,.T.);
#463=EDGE_CURVE('',#379,#380,#195,.T.);
#464=EDGE_CURVE('',#381,#380,#196,.T.);
#465=EDGE_CURVE('',#369,#381,#323,.T.);
#466=EDGE_CURVE('',#381,#382,#197,.T.);
#467=EDGE_CURVE('',#382,#370,#324,.T.);
#468=EDGE_CURVE('',#380,#383,#198,.T.);
#469=EDGE_CURVE('',#383,#341,#199,.T.);
#470=EDGE_CURVE('',#384,#374,#200,.T.);
#471=EDGE_CURVE('',#382,#384,#201,.F.);
#472=EDGE_CURVE('',#373,#385,#202,.T.);
#473=EDGE_CURVE('',#385,#384,#325,.T.);
#474=EDGE_CURVE('',#386,#372,#203,.T.);
#475=EDGE_CURVE('',#386,#385,#204,.T.);
#476=EDGE_CURVE('',#371,#387,#205,.T.);
#477=EDGE_CURVE('',#387,#386,#326,.T.);
#478=EDGE_CURVE('',#387,#368,#206,.F.);
#479=EDGE_CURVE('',#388,#389,#207,.T.);
#480=EDGE_CURVE('',#389,#390,#327,.T.);
#481=EDGE_CURVE('',#390,#391,#208,.T.);
#482=EDGE_CURVE('',#391,#392,#328,.T.);
#483=EDGE_CURVE('',#392,#393,#209,.T.);
#484=EDGE_CURVE('',#393,#394,#329,.T.);
#485=EDGE_CURVE('',#394,#395,#210,.T.);
#486=EDGE_CURVE('',#395,#388,#330,.T.);
#487=EDGE_CURVE('',#396,#397,#211,.T.);
#488=EDGE_CURVE('',#389,#396,#212,.T.);
#489=EDGE_CURVE('',#388,#397,#213,.T.);
#490=EDGE_CURVE('',#397,#398,#331,.T.);
#491=EDGE_CURVE('',#395,#398,#214,.T.);
#492=EDGE_CURVE('',#398,#399,#215,.T.);
#493=EDGE_CURVE('',#394,#399,#216,.T.);
#494=EDGE_CURVE('',#399,#400,#332,.T.);
#495=EDGE_CURVE('',#393,#400,#217,.T.);
#496=EDGE_CURVE('',#400,#401,#218,.T.);
#497=EDGE_CURVE('',#392,#401,#219,.T.);
#498=EDGE_CURVE('',#401,#402,#333,.T.);
#499=EDGE_CURVE('',#391,#402,#220,.T.);
#500=EDGE_CURVE('',#402,#403,#221,.T.);
#501=EDGE_CURVE('',#390,#403,#222,.T.);
#502=EDGE_CURVE('',#403,#396,#334,.T.);
#503=EDGE_CURVE('',#404,#379,#223,.T.);
#504=EDGE_CURVE('',#351,#378,#224,.T.);
#505=EDGE_CURVE('',#350,#375,#225,.T.);
#506=EDGE_CURVE('',#343,#404,#226,.T.);
#507=EDGE_CURVE('',#383,#404,#227,.T.);
#508=EDGE_CURVE('',#349,#376,#228,.T.);
#509=EDGE_CURVE('',#352,#377,#229,.T.);
#510=ORIENTED_EDGE('',*,*,#405,.F.);
#511=ORIENTED_EDGE('',*,*,#406,.T.);
#512=ORIENTED_EDGE('',*,*,#407,.F.);
#513=ORIENTED_EDGE('',*,*,#406,.F.);
#514=ORIENTED_EDGE('',*,*,#408,.F.);
#515=ORIENTED_EDGE('',*,*,#409,.T.);
#516=ORIENTED_EDGE('',*,*,#410,.F.);
#517=ORIENTED_EDGE('',*,*,#409,.F.);
#518=ORIENTED_EDGE('',*,*,#411,.F.);
#519=ORIENTED_EDGE('',*,*,#412,.T.);
#520=ORIENTED_EDGE('',*,*,#413,.F.);
#521=ORIENTED_EDGE('',*,*,#412,.F.);
#522=ORIENTED_EDGE('',*,*,#414,.F.);
#523=ORIENTED_EDGE('',*,*,#415,.T.);
#524=ORIENTED_EDGE('',*,*,#416,.F.);
#525=ORIENTED_EDGE('',*,*,#417,.F.);
#526=ORIENTED_EDGE('',*,*,#418,.F.);
#527=ORIENTED_EDGE('',*,*,#419,.T.);
#528=ORIENTED_EDGE('',*,*,#420,.F.);
#529=ORIENTED_EDGE('',*,*,#419,.F.);
#530=ORIENTED_EDGE('',*,*,#421,.F.);
#531=ORIENTED_EDGE('',*,*,#422,.T.);
#532=ORIENTED_EDGE('',*,*,#423,.F.);
#533=ORIENTED_EDGE('',*,*,#422,.F.);
#534=ORIENTED_EDGE('',*,*,#421,.T.);
#535=ORIENTED_EDGE('',*,*,#418,.T.);
#536=ORIENTED_EDGE('',*,*,#424,.T.);
#537=ORIENTED_EDGE('',*,*,#425,.F.);
#538=ORIENTED_EDGE('',*,*,#426,.T.);
#539=ORIENTED_EDGE('',*,*,#427,.F.);
#540=ORIENTED_EDGE('',*,*,#428,.T.);
#541=ORIENTED_EDGE('',*,*,#429,.T.);
#542=ORIENTED_EDGE('',*,*,#430,.T.);
#543=ORIENTED_EDGE('',*,*,#423,.T.);
#544=ORIENTED_EDGE('',*,*,#431,.F.);
#545=ORIENTED_EDGE('',*,*,#432,.T.);
#546=ORIENTED_EDGE('',*,*,#433,.F.);
#547=ORIENTED_EDGE('',*,*,#432,.F.);
#548=ORIENTED_EDGE('',*,*,#434,.F.);
#549=ORIENTED_EDGE('',*,*,#435,.T.);
#550=ORIENTED_EDGE('',*,*,#428,.F.);
#551=ORIENTED_EDGE('',*,*,#435,.F.);
#552=ORIENTED_EDGE('',*,*,#434,.T.);
#553=ORIENTED_EDGE('',*,*,#431,.T.);
#554=ORIENTED_EDGE('',*,*,#420,.T.);
#555=ORIENTED_EDGE('',*,*,#436,.F.);
#556=ORIENTED_EDGE('',*,*,#437,.T.);
#557=ORIENTED_EDGE('',*,*,#438,.F.);
#558=ORIENTED_EDGE('',*,*,#437,.F.);
#559=ORIENTED_EDGE('',*,*,#439,.F.);
#560=ORIENTED_EDGE('',*,*,#440,.T.);
#561=ORIENTED_EDGE('',*,*,#430,.F.);
#562=ORIENTED_EDGE('',*,*,#440,.F.);
#563=ORIENTED_EDGE('',*,*,#439,.T.);
#564=ORIENTED_EDGE('',*,*,#436,.T.);
#565=ORIENTED_EDGE('',*,*,#433,.T.);
#566=ORIENTED_EDGE('',*,*,#441,.F.);
#567=ORIENTED_EDGE('',*,*,#442,.T.);
#568=ORIENTED_EDGE('',*,*,#443,.F.);
#569=ORIENTED_EDGE('',*,*,#442,.F.);
#570=ORIENTED_EDGE('',*,*,#444,.F.);
#571=ORIENTED_EDGE('',*,*,#445,.T.);
#572=ORIENTED_EDGE('',*,*,#429,.F.);
#573=ORIENTED_EDGE('',*,*,#445,.F.);
#574=ORIENTED_EDGE('',*,*,#444,.T.);
#575=ORIENTED_EDGE('',*,*,#441,.T.);
#576=ORIENTED_EDGE('',*,*,#438,.T.);
#577=ORIENTED_EDGE('',*,*,#446,.T.);
#578=ORIENTED_EDGE('',*,*,#447,.T.);
#579=ORIENTED_EDGE('',*,*,#448,.T.);
#580=ORIENTED_EDGE('',*,*,#449,.T.);
#581=ORIENTED_EDGE('',*,*,#447,.F.);
#582=ORIENTED_EDGE('',*,*,#450,.T.);
#583=ORIENTED_EDGE('',*,*,#451,.F.);
#584=ORIENTED_EDGE('',*,*,#452,.T.);
#585=ORIENTED_EDGE('',*,*,#405,.T.);
#586=ORIENTED_EDGE('',*,*,#408,.T.);
#587=ORIENTED_EDGE('',*,*,#411,.T.);
#588=ORIENTED_EDGE('',*,*,#446,.F.);
#589=ORIENTED_EDGE('',*,*,#453,.F.);
#590=ORIENTED_EDGE('',*,*,#454,.F.);
#591=ORIENTED_EDGE('',*,*,#455,.F.);
#592=ORIENTED_EDGE('',*,*,#456,.F.);
#593=ORIENTED_EDGE('',*,*,#457,.F.);
#594=ORIENTED_EDGE('',*,*,#417,.T.);
#595=ORIENTED_EDGE('',*,*,#458,.T.);
#596=ORIENTED_EDGE('',*,*,#459,.T.);
#597=ORIENTED_EDGE('',*,*,#460,.T.);
#598=ORIENTED_EDGE('',*,*,#461,.T.);
#599=ORIENTED_EDGE('',*,*,#462,.T.);
#600=ORIENTED_EDGE('',*,*,#463,.T.);
#601=ORIENTED_EDGE('',*,*,#464,.F.);
#602=ORIENTED_EDGE('',*,*,#465,.F.);
#603=ORIENTED_EDGE('',*,*,#450,.F.);
#604=ORIENTED_EDGE('',*,*,#465,.T.);
#605=ORIENTED_EDGE('',*,*,#466,.T.);
#606=ORIENTED_EDGE('',*,*,#467,.T.);
#607=ORIENTED_EDGE('',*,*,#451,.T.);
#608=ORIENTED_EDGE('',*,*,#466,.F.);
#609=ORIENTED_EDGE('',*,*,#464,.T.);
#610=ORIENTED_EDGE('',*,*,#468,.T.);
#611=ORIENTED_EDGE('',*,*,#469,.T.);
#612=ORIENTED_EDGE('',*,*,#414,.T.);
#613=ORIENTED_EDGE('',*,*,#457,.T.);
#614=ORIENTED_EDGE('',*,*,#470,.F.);
#615=ORIENTED_EDGE('',*,*,#471,.F.);
#616=ORIENTED_EDGE('',*,*,#456,.T.);
#617=ORIENTED_EDGE('',*,*,#472,.T.);
#618=ORIENTED_EDGE('',*,*,#473,.T.);
#619=ORIENTED_EDGE('',*,*,#470,.T.);
#620=ORIENTED_EDGE('',*,*,#472,.F.);
#621=ORIENTED_EDGE('',*,*,#455,.T.);
#622=ORIENTED_EDGE('',*,*,#474,.F.);
#623=ORIENTED_EDGE('',*,*,#475,.T.);
#624=ORIENTED_EDGE('',*,*,#454,.T.);
#625=ORIENTED_EDGE('',*,*,#476,.T.);
#626=ORIENTED_EDGE('',*,*,#477,.T.);
#627=ORIENTED_EDGE('',*,*,#474,.T.);
#628=ORIENTED_EDGE('',*,*,#449,.F.);
#629=ORIENTED_EDGE('',*,*,#478,.F.);
#630=ORIENTED_EDGE('',*,*,#476,.F.);
#631=ORIENTED_EDGE('',*,*,#453,.T.);
#632=ORIENTED_EDGE('',*,*,#479,.T.);
#633=ORIENTED_EDGE('',*,*,#480,.T.);
#634=ORIENTED_EDGE('',*,*,#481,.T.);
#635=ORIENTED_EDGE('',*,*,#482,.T.);
#636=ORIENTED_EDGE('',*,*,#483,.T.);
#637=ORIENTED_EDGE('',*,*,#484,.T.);
#638=ORIENTED_EDGE('',*,*,#485,.T.);
#639=ORIENTED_EDGE('',*,*,#486,.T.);
#640=ORIENTED_EDGE('',*,*,#487,.F.);
#641=ORIENTED_EDGE('',*,*,#488,.F.);
#642=ORIENTED_EDGE('',*,*,#479,.F.);
#643=ORIENTED_EDGE('',*,*,#489,.T.);
#644=ORIENTED_EDGE('',*,*,#490,.F.);
#645=ORIENTED_EDGE('',*,*,#489,.F.);
#646=ORIENTED_EDGE('',*,*,#486,.F.);
#647=ORIENTED_EDGE('',*,*,#491,.T.);
#648=ORIENTED_EDGE('',*,*,#492,.F.);
#649=ORIENTED_EDGE('',*,*,#491,.F.);
#650=ORIENTED_EDGE('',*,*,#485,.F.);
#651=ORIENTED_EDGE('',*,*,#493,.T.);
#652=ORIENTED_EDGE('',*,*,#494,.F.);
#653=ORIENTED_EDGE('',*,*,#493,.F.);
#654=ORIENTED_EDGE('',*,*,#484,.F.);
#655=ORIENTED_EDGE('',*,*,#495,.T.);
#656=ORIENTED_EDGE('',*,*,#496,.F.);
#657=ORIENTED_EDGE('',*,*,#495,.F.);
#658=ORIENTED_EDGE('',*,*,#483,.F.);
#659=ORIENTED_EDGE('',*,*,#497,.T.);
#660=ORIENTED_EDGE('',*,*,#498,.F.);
#661=ORIENTED_EDGE('',*,*,#497,.F.);
#662=ORIENTED_EDGE('',*,*,#482,.F.);
#663=ORIENTED_EDGE('',*,*,#499,.T.);
#664=ORIENTED_EDGE('',*,*,#500,.F.);
#665=ORIENTED_EDGE('',*,*,#499,.F.);
#666=ORIENTED_EDGE('',*,*,#481,.F.);
#667=ORIENTED_EDGE('',*,*,#501,.T.);
#668=ORIENTED_EDGE('',*,*,#502,.F.);
#669=ORIENTED_EDGE('',*,*,#501,.F.);
#670=ORIENTED_EDGE('',*,*,#480,.F.);
#671=ORIENTED_EDGE('',*,*,#488,.T.);
#672=ORIENTED_EDGE('',*,*,#503,.T.);
#673=ORIENTED_EDGE('',*,*,#462,.F.);
#674=ORIENTED_EDGE('',*,*,#504,.F.);
#675=ORIENTED_EDGE('',*,*,#425,.T.);
#676=ORIENTED_EDGE('',*,*,#505,.T.);
#677=ORIENTED_EDGE('',*,*,#458,.F.);
#678=ORIENTED_EDGE('',*,*,#416,.T.);
#679=ORIENTED_EDGE('',*,*,#506,.T.);
#680=ORIENTED_EDGE('',*,*,#506,.F.);
#681=ORIENTED_EDGE('',*,*,#415,.F.);
#682=ORIENTED_EDGE('',*,*,#469,.F.);
#683=ORIENTED_EDGE('',*,*,#507,.T.);
#684=ORIENTED_EDGE('',*,*,#503,.F.);
#685=ORIENTED_EDGE('',*,*,#507,.F.);
#686=ORIENTED_EDGE('',*,*,#468,.F.);
#687=ORIENTED_EDGE('',*,*,#463,.F.);
#688=ORIENTED_EDGE('',*,*,#459,.F.);
#689=ORIENTED_EDGE('',*,*,#505,.F.);
#690=ORIENTED_EDGE('',*,*,#424,.F.);
#691=ORIENTED_EDGE('',*,*,#508,.T.);
#692=ORIENTED_EDGE('',*,*,#460,.F.);
#693=ORIENTED_EDGE('',*,*,#508,.F.);
#694=ORIENTED_EDGE('',*,*,#427,.T.);
#695=ORIENTED_EDGE('',*,*,#509,.T.);
#696=ORIENTED_EDGE('',*,*,#487,.T.);
#697=ORIENTED_EDGE('',*,*,#490,.T.);
#698=ORIENTED_EDGE('',*,*,#492,.T.);
#699=ORIENTED_EDGE('',*,*,#494,.T.);
#700=ORIENTED_EDGE('',*,*,#496,.T.);
#701=ORIENTED_EDGE('',*,*,#498,.T.);
#702=ORIENTED_EDGE('',*,*,#500,.T.);
#703=ORIENTED_EDGE('',*,*,#502,.T.);
#704=ORIENTED_EDGE('',*,*,#461,.F.);
#705=ORIENTED_EDGE('',*,*,#509,.F.);
#706=ORIENTED_EDGE('',*,*,#426,.F.);
#707=ORIENTED_EDGE('',*,*,#504,.T.);
#708=ORIENTED_EDGE('',*,*,#407,.T.);
#709=ORIENTED_EDGE('',*,*,#410,.T.);
#710=ORIENTED_EDGE('',*,*,#413,.T.);
#711=ORIENTED_EDGE('',*,*,#443,.T.);
#712=ORIENTED_EDGE('',*,*,#448,.F.);
#713=ORIENTED_EDGE('',*,*,#452,.F.);
#714=ORIENTED_EDGE('',*,*,#467,.F.);
#715=ORIENTED_EDGE('',*,*,#471,.T.);
#716=ORIENTED_EDGE('',*,*,#473,.F.);
#717=ORIENTED_EDGE('',*,*,#475,.F.);
#718=ORIENTED_EDGE('',*,*,#477,.F.);
#719=ORIENTED_EDGE('',*,*,#478,.T.);
#720=CYLINDRICAL_SURFACE('',#798,1.07336853880793);
#721=CYLINDRICAL_SURFACE('',#801,1.07336853880793);
#722=CYLINDRICAL_SURFACE('',#804,1.07336853880793);
#723=CYLINDRICAL_SURFACE('',#808,0.750000000000002);
#724=CYLINDRICAL_SURFACE('',#811,2.50000254000501);
#725=CYLINDRICAL_SURFACE('',#819,0.75);
#726=CYLINDRICAL_SURFACE('',#822,2.500002540005);
#727=CYLINDRICAL_SURFACE('',#826,0.750000000000002);
#728=CYLINDRICAL_SURFACE('',#829,2.50000254000501);
#729=CYLINDRICAL_SURFACE('',#833,0.750000000000001);
#730=CYLINDRICAL_SURFACE('',#836,2.500002540005);
#731=CYLINDRICAL_SURFACE('',#840,1.);
#732=CYLINDRICAL_SURFACE('',#848,1.);
#733=CYLINDRICAL_SURFACE('',#851,1.);
#734=CYLINDRICAL_SURFACE('',#854,1.);
#735=CYLINDRICAL_SURFACE('',#862,1.16999998828983);
#736=CYLINDRICAL_SURFACE('',#865,1.16999998829);
#737=CYLINDRICAL_SURFACE('',#868,1.16999998829);
#738=CYLINDRICAL_SURFACE('',#871,1.16999998829034);
#739=ADVANCED_FACE('',(#57),#720,.F.);
#740=ADVANCED_FACE('',(#58),#721,.F.);
#741=ADVANCED_FACE('',(#59),#722,.F.);
#742=ADVANCED_FACE('',(#60),#31,.F.);
#743=ADVANCED_FACE('',(#61),#723,.F.);
#744=ADVANCED_FACE('',(#62),#724,.T.);
#745=ADVANCED_FACE('',(#63,#15),#32,.F.);
#746=ADVANCED_FACE('',(#64,#16,#17,#18,#19),#33,.F.);
#747=ADVANCED_FACE('',(#65),#725,.F.);
#748=ADVANCED_FACE('',(#66),#726,.T.);
#749=ADVANCED_FACE('',(#67,#20),#34,.F.);
#750=ADVANCED_FACE('',(#68),#35,.F.);
#751=ADVANCED_FACE('',(#69),#727,.F.);
#752=ADVANCED_FACE('',(#70),#728,.T.);
#753=ADVANCED_FACE('',(#71,#21),#36,.F.);
#754=ADVANCED_FACE('',(#72),#37,.F.);
#755=ADVANCED_FACE('',(#73),#729,.F.);
#756=ADVANCED_FACE('',(#74),#730,.T.);
#757=ADVANCED_FACE('',(#75,#22),#38,.F.);
#758=ADVANCED_FACE('',(#76),#39,.F.);
#759=ADVANCED_FACE('',(#77),#731,.T.);
#760=ADVANCED_FACE('',(#78,#23,#24,#25),#40,.T.);
#761=ADVANCED_FACE('',(#79),#41,.T.);
#762=ADVANCED_FACE('',(#80),#732,.T.);
#763=ADVANCED_FACE('',(#81),#42,.T.);
#764=ADVANCED_FACE('',(#82),#733,.T.);
#765=ADVANCED_FACE('',(#83),#43,.T.);
#766=ADVANCED_FACE('',(#84),#734,.T.);
#767=ADVANCED_FACE('',(#85,#26),#44,.T.);
#768=ADVANCED_FACE('',(#86),#45,.F.);
#769=ADVANCED_FACE('',(#87),#735,.F.);
#770=ADVANCED_FACE('',(#88),#46,.F.);
#771=ADVANCED_FACE('',(#89),#736,.F.);
#772=ADVANCED_FACE('',(#90),#47,.F.);
#773=ADVANCED_FACE('',(#91),#737,.F.);
#774=ADVANCED_FACE('',(#92),#48,.F.);
#775=ADVANCED_FACE('',(#93),#738,.F.);
#776=ADVANCED_FACE('',(#94),#49,.F.);
#777=ADVANCED_FACE('',(#95),#50,.F.);
#778=ADVANCED_FACE('',(#96),#51,.F.);
#779=ADVANCED_FACE('',(#97),#52,.F.);
#780=ADVANCED_FACE('',(#98,#27),#53,.F.);
#781=ADVANCED_FACE('',(#99,#28,#29,#30),#54,.F.);
#782=ADVANCED_FACE('',(#100),#55,.F.);
#783=ADVANCED_FACE('',(#101),#56,.T.);
#784=CLOSED_SHELL('',(#739,#740,#741,#742,#743,#744,#745,#746,#747,#748,
#749,#750,#751,#752,#753,#754,#755,#756,#757,#758,#759,#760,#761,#762,#763,
#764,#765,#766,#767,#768,#769,#770,#771,#772,#773,#774,#775,#776,#777,#778,
#779,#780,#781,#782,#783));
#785=DERIVED_UNIT_ELEMENT(#787,1.);
#786=DERIVED_UNIT_ELEMENT(#1342,-3.);
#787=(
MASS_UNIT()
NAMED_UNIT(*)
SI_UNIT(.KILO.,.GRAM.)
);
#788=DERIVED_UNIT((#785,#786));
#789=MEASURE_REPRESENTATION_ITEM('density measure',
POSITIVE_RATIO_MEASURE(7850.),#788);
#790=PROPERTY_DEFINITION_REPRESENTATION(#795,#792);
#791=PROPERTY_DEFINITION_REPRESENTATION(#796,#793);
#792=REPRESENTATION('material name',(#794),#1339);
#793=REPRESENTATION('density',(#789),#1339);
#794=DESCRIPTIVE_REPRESENTATION_ITEM('Steel','Steel');
#795=PROPERTY_DEFINITION('material property','material name',#1349);
#796=PROPERTY_DEFINITION('material property','density of part',#1349);
#797=AXIS2_PLACEMENT_3D('',#1116,#881,#882);
#798=AXIS2_PLACEMENT_3D('',#1117,#883,#884);
#799=AXIS2_PLACEMENT_3D('',#1119,#885,#886);
#800=AXIS2_PLACEMENT_3D('',#1122,#888,#889);
#801=AXIS2_PLACEMENT_3D('',#1123,#890,#891);
#802=AXIS2_PLACEMENT_3D('',#1125,#892,#893);
#803=AXIS2_PLACEMENT_3D('',#1128,#895,#896);
#804=AXIS2_PLACEMENT_3D('',#1129,#897,#898);
#805=AXIS2_PLACEMENT_3D('',#1131,#899,#900);
#806=AXIS2_PLACEMENT_3D('',#1134,#902,#903);
#807=AXIS2_PLACEMENT_3D('',#1135,#904,#905);
#808=AXIS2_PLACEMENT_3D('',#1144,#910,#911);
#809=AXIS2_PLACEMENT_3D('',#1146,#912,#913);
#810=AXIS2_PLACEMENT_3D('',#1149,#915,#916);
#811=AXIS2_PLACEMENT_3D('',#1150,#917,#918);
#812=AXIS2_PLACEMENT_3D('',#1152,#919,#920);
#813=AXIS2_PLACEMENT_3D('',#1155,#922,#923);
#814=AXIS2_PLACEMENT_3D('',#1156,#924,#925);
#815=AXIS2_PLACEMENT_3D('',#1157,#926,#927);
#816=AXIS2_PLACEMENT_3D('',#1167,#932,#933);
#817=AXIS2_PLACEMENT_3D('',#1169,#934,#935);
#818=AXIS2_PLACEMENT_3D('',#1171,#936,#937);
#819=AXIS2_PLACEMENT_3D('',#1172,#938,#939);
#820=AXIS2_PLACEMENT_3D('',#1174,#940,#941);
#821=AXIS2_PLACEMENT_3D('',#1177,#943,#944);
#822=AXIS2_PLACEMENT_3D('',#1178,#945,#946);
#823=AXIS2_PLACEMENT_3D('',#1180,#947,#948);
#824=AXIS2_PLACEMENT_3D('',#1182,#950,#951);
#825=AXIS2_PLACEMENT_3D('',#1183,#952,#953);
#826=AXIS2_PLACEMENT_3D('',#1184,#954,#955);
#827=AXIS2_PLACEMENT_3D('',#1186,#956,#957);
#828=AXIS2_PLACEMENT_3D('',#1189,#959,#960);
#829=AXIS2_PLACEMENT_3D('',#1190,#961,#962);
#830=AXIS2_PLACEMENT_3D('',#1192,#963,#964);
#831=AXIS2_PLACEMENT_3D('',#1194,#966,#967);
#832=AXIS2_PLACEMENT_3D('',#1195,#968,#969);
#833=AXIS2_PLACEMENT_3D('',#1196,#970,#971);
#834=AXIS2_PLACEMENT_3D('',#1198,#972,#973);
#835=AXIS2_PLACEMENT_3D('',#1201,#975,#976);
#836=AXIS2_PLACEMENT_3D('',#1202,#977,#978);
#837=AXIS2_PLACEMENT_3D('',#1204,#979,#980);
#838=AXIS2_PLACEMENT_3D('',#1206,#982,#983);
#839=AXIS2_PLACEMENT_3D('',#1207,#984,#985);
#840=AXIS2_PLACEMENT_3D('',#1208,#986,#987);
#841=AXIS2_PLACEMENT_3D('',#1211,#988,#989);
#842=AXIS2_PLACEMENT_3D('',#1215,#991,#992);
#843=AXIS2_PLACEMENT_3D('',#1217,#994,#995);
#844=AXIS2_PLACEMENT_3D('',#1223,#999,#1000);
#845=AXIS2_PLACEMENT_3D('',#1227,#1002,#1003);
#846=AXIS2_PLACEMENT_3D('',#1231,#1005,#1006);
#847=AXIS2_PLACEMENT_3D('',#1247,#1015,#1016);
#848=AXIS2_PLACEMENT_3D('',#1248,#1017,#1018);
#849=AXIS2_PLACEMENT_3D('',#1251,#1020,#1021);
#850=AXIS2_PLACEMENT_3D('',#1252,#1022,#1023);
#851=AXIS2_PLACEMENT_3D('',#1259,#1028,#1029);
#852=AXIS2_PLACEMENT_3D('',#1262,#1031,#1032);
#853=AXIS2_PLACEMENT_3D('',#1263,#1033,#1034);
#854=AXIS2_PLACEMENT_3D('',#1267,#1037,#1038);
#855=AXIS2_PLACEMENT_3D('',#1270,#1040,#1041);
#856=AXIS2_PLACEMENT_3D('',#1271,#1042,#1043);
#857=AXIS2_PLACEMENT_3D('',#1277,#1046,#1047);
#858=AXIS2_PLACEMENT_3D('',#1281,#1049,#1050);
#859=AXIS2_PLACEMENT_3D('',#1285,#1052,#1053);
#860=AXIS2_PLACEMENT_3D('',#1288,#1055,#1056);
#861=AXIS2_PLACEMENT_3D('',#1289,#1057,#1058);
#862=AXIS2_PLACEMENT_3D('',#1295,#1062,#1063);
#863=AXIS2_PLACEMENT_3D('',#1297,#1064,#1065);
#864=AXIS2_PLACEMENT_3D('',#1299,#1067,#1068);
#865=AXIS2_PLACEMENT_3D('',#1303,#1071,#1072);
#866=AXIS2_PLACEMENT_3D('',#1305,#1073,#1074);
#867=AXIS2_PLACEMENT_3D('',#1307,#1076,#1077);
#868=AXIS2_PLACEMENT_3D('',#1311,#1080,#1081);
#869=AXIS2_PLACEMENT_3D('',#1313,#1082,#1083);
#870=AXIS2_PLACEMENT_3D('',#1315,#1085,#1086);
#871=AXIS2_PLACEMENT_3D('',#1319,#1089,#1090);
#872=AXIS2_PLACEMENT_3D('',#1320,#1091,#1092);
#873=AXIS2_PLACEMENT_3D('',#1321,#1093,#1094);
#874=AXIS2_PLACEMENT_3D('',#1327,#1099,#1100);
#875=AXIS2_PLACEMENT_3D('',#1329,#1102,#1103);
#876=AXIS2_PLACEMENT_3D('',#1330,#1104,#1105);
#877=AXIS2_PLACEMENT_3D('',#1332,#1107,#1108);
#878=AXIS2_PLACEMENT_3D('',#1334,#1110,#1111);
#879=AXIS2_PLACEMENT_3D('',#1335,#1112,#1113);
#880=AXIS2_PLACEMENT_3D('',#1336,#1114,#1115);
#881=DIRECTION('axis',(0.,0.,1.));
#882=DIRECTION('refdir',(1.,0.,0.));
#883=DIRECTION('center_axis',(0.,-1.,0.));
#884=DIRECTION('ref_axis',(-1.,0.,0.));
#885=DIRECTION('center_axis',(0.,-1.,0.));
#886=DIRECTION('ref_axis',(-1.,0.,0.));
#887=DIRECTION('',(0.,-1.,0.));
#888=DIRECTION('center_axis',(0.,-1.,0.));
#889=DIRECTION('ref_axis',(-1.,0.,0.));
#890=DIRECTION('center_axis',(0.,-1.,0.));
#891=DIRECTION('ref_axis',(-1.,0.,0.));
#892=DIRECTION('center_axis',(0.,-1.,0.));
#893=DIRECTION('ref_axis',(-1.,0.,0.));
#894=DIRECTION('',(0.,-1.,0.));
#895=DIRECTION('center_axis',(0.,-1.,0.));
#896=DIRECTION('ref_axis',(-1.,0.,0.));
#897=DIRECTION('center_axis',(0.,-1.,0.));
#898=DIRECTION('ref_axis',(-1.,0.,0.));
#899=DIRECTION('center_axis',(0.,-1.,0.));
#900=DIRECTION('ref_axis',(-1.,0.,0.));
#901=DIRECTION('',(0.,-1.,0.));
#902=DIRECTION('center_axis',(0.,-1.,0.));
#903=DIRECTION('ref_axis',(-1.,0.,0.));
#904=DIRECTION('center_axis',(0.,-1.,0.));
#905=DIRECTION('ref_axis',(0.,0.,1.));
#906=DIRECTION('',(0.,0.,1.));
#907=DIRECTION('',(-1.,0.,0.));
#908=DIRECTION('',(0.,0.,-1.));
#909=DIRECTION('',(-1.,0.,0.));
#910=DIRECTION('center_axis',(0.,0.,-1.));
#911=DIRECTION('ref_axis',(-1.,0.,0.));
#912=DIRECTION('center_axis',(0.,0.,-1.));
#913=DIRECTION('ref_axis',(-1.,0.,0.));
#914=DIRECTION('',(0.,0.,-1.));
#915=DIRECTION('center_axis',(0.,0.,1.));
#916=DIRECTION('ref_axis',(-1.,0.,0.));
#917=DIRECTION('center_axis',(0.,0.,1.));
#918=DIRECTION('ref_axis',(-1.,0.,0.));
#919=DIRECTION('center_axis',(0.,0.,1.));
#920=DIRECTION('ref_axis',(-1.,0.,0.));
#921=DIRECTION('',(0.,0.,-1.));
#922=DIRECTION('center_axis',(0.,0.,-1.));
#923=DIRECTION('ref_axis',(-1.,0.,0.));
#924=DIRECTION('center_axis',(0.,0.,-1.));
#925=DIRECTION('ref_axis',(-1.,0.,0.));
#926=DIRECTION('center_axis',(0.,0.,-1.));
#927=DIRECTION('ref_axis',(-1.,0.,0.));
#928=DIRECTION('',(1.,5.04878989538504E-18,0.));
#929=DIRECTION('',(0.,-1.,0.));
#930=DIRECTION('',(-1.,0.,0.));
#931=DIRECTION('',(0.,1.,0.));
#932=DIRECTION('center_axis',(0.,0.,-1.));
#933=DIRECTION('ref_axis',(-1.,0.,0.));
#934=DIRECTION('center_axis',(0.,0.,-1.));
#935=DIRECTION('ref_axis',(-1.,0.,0.));
#936=DIRECTION('center_axis',(0.,0.,-1.));
#937=DIRECTION('ref_axis',(-1.,0.,0.));
#938=DIRECTION('center_axis',(0.,0.,-1.));
#939=DIRECTION('ref_axis',(-1.,0.,0.));
#940=DIRECTION('center_axis',(0.,0.,-1.));
#941=DIRECTION('ref_axis',(-1.,0.,0.));
#942=DIRECTION('',(0.,0.,-1.));
#943=DIRECTION('center_axis',(0.,0.,1.));
#944=DIRECTION('ref_axis',(-1.,0.,0.));
#945=DIRECTION('center_axis',(0.,0.,1.));
#946=DIRECTION('ref_axis',(-1.,0.,0.));
#947=DIRECTION('center_axis',(0.,0.,1.));
#948=DIRECTION('ref_axis',(-1.,0.,0.));
#949=DIRECTION('',(0.,0.,-1.));
#950=DIRECTION('center_axis',(0.,0.,-1.));
#951=DIRECTION('ref_axis',(-1.,0.,0.));
#952=DIRECTION('center_axis',(0.,0.,-1.));
#953=DIRECTION('ref_axis',(-1.,0.,0.));
#954=DIRECTION('center_axis',(0.,0.,-1.));
#955=DIRECTION('ref_axis',(-1.,0.,0.));
#956=DIRECTION('center_axis',(0.,0.,-1.));
#957=DIRECTION('ref_axis',(-1.,0.,0.));
#958=DIRECTION('',(0.,0.,-1.));
#959=DIRECTION('center_axis',(0.,0.,1.));
#960=DIRECTION('ref_axis',(-1.,0.,0.));
#961=DIRECTION('center_axis',(0.,0.,1.));
#962=DIRECTION('ref_axis',(-1.,0.,0.));
#963=DIRECTION('center_axis',(0.,0.,1.));
#964=DIRECTION('ref_axis',(-1.,0.,0.));
#965=DIRECTION('',(0.,0.,-1.));
#966=DIRECTION('center_axis',(0.,0.,-1.));
#967=DIRECTION('ref_axis',(-1.,0.,0.));
#968=DIRECTION('center_axis',(0.,0.,-1.));
#969=DIRECTION('ref_axis',(-1.,0.,0.));
#970=DIRECTION('center_axis',(0.,0.,-1.));
#971=DIRECTION('ref_axis',(-1.,0.,0.));
#972=DIRECTION('center_axis',(0.,0.,-1.));
#973=DIRECTION('ref_axis',(-1.,0.,0.));
#974=DIRECTION('',(0.,0.,-1.));
#975=DIRECTION('center_axis',(0.,0.,1.));
#976=DIRECTION('ref_axis',(-1.,0.,0.));
#977=DIRECTION('center_axis',(0.,0.,1.));
#978=DIRECTION('ref_axis',(-1.,0.,0.));
#979=DIRECTION('center_axis',(0.,0.,1.));
#980=DIRECTION('ref_axis',(-1.,0.,0.));
#981=DIRECTION('',(0.,0.,-1.));
#982=DIRECTION('center_axis',(0.,0.,-1.));
#983=DIRECTION('ref_axis',(-1.,0.,0.));
#984=DIRECTION('center_axis',(0.,0.,-1.));
#985=DIRECTION('ref_axis',(-1.,0.,0.));
#986=DIRECTION('center_axis',(0.,0.,1.));
#987=DIRECTION('ref_axis',(-0.707106781186549,0.707106781186546,0.));
#988=DIRECTION('center_axis',(0.,0.,-1.));
#989=DIRECTION('ref_axis',(-0.707106781186549,0.707106781186546,0.));
#990=DIRECTION('',(0.,0.,-1.));
#991=DIRECTION('center_axis',(0.,0.,1.));
#992=DIRECTION('ref_axis',(-0.707106781186549,0.707106781186546,0.));
#993=DIRECTION('',(0.,0.,1.));
#994=DIRECTION('center_axis',(0.,1.,0.));
#995=DIRECTION('ref_axis',(-1.,0.,0.));
#996=DIRECTION('',(1.,0.,0.));
#997=DIRECTION('',(0.,0.,1.));
#998=DIRECTION('',(-1.,0.,0.));
#999=DIRECTION('center_axis',(0.,0.,1.));
#1000=DIRECTION('ref_axis',(1.,0.,0.));
#1001=DIRECTION('',(0.,1.,0.));
#1002=DIRECTION('center_axis',(0.,0.,-1.));
#1003=DIRECTION('ref_axis',(-0.707106781186547,-0.707106781186548,0.));
#1004=DIRECTION('',(-1.,-5.04878989538504E-18,0.));
#1005=DIRECTION('center_axis',(0.,0.,-1.));
#1006=DIRECTION('ref_axis',(0.707106781186546,-0.707106781186549,0.));
#1007=DIRECTION('',(0.,-1.,0.));
#1008=DIRECTION('',(0.,-1.,0.));
#1009=DIRECTION('',(-1.,-5.04878989538504E-18,0.));
#1010=DIRECTION('',(0.,1.,0.));
#1011=DIRECTION('',(1.,0.,0.));
#1012=DIRECTION('',(0.,-1.,0.));
#1013=DIRECTION('',(1.,0.,0.));
#1014=DIRECTION('',(0.,-1.,0.));
#1015=DIRECTION('center_axis',(0.,0.,-1.));
#1016=DIRECTION('ref_axis',(0.707106781186541,0.707106781186554,0.));
#1017=DIRECTION('center_axis',(0.,0.,1.));
#1018=DIRECTION('ref_axis',(0.707106781186541,0.707106781186554,0.));
#1019=DIRECTION('',(0.,0.,-1.));
#1020=DIRECTION('center_axis',(0.,0.,1.));
#1021=DIRECTION('ref_axis',(0.707106781186541,0.707106781186554,0.));
#1022=DIRECTION('center_axis',(1.,0.,0.));
#1023=DIRECTION('ref_axis',(0.,1.,0.));
#1024=DIRECTION('',(0.,0.,-1.));
#1025=DIRECTION('',(0.,-1.,2.42618672094421E-18));
#1026=DIRECTION('',(0.,0.,1.));
#1027=DIRECTION('',(0.,1.,0.));
#1028=DIRECTION('center_axis',(0.,0.,1.));
#1029=DIRECTION('ref_axis',(0.707106781186546,-0.707106781186549,0.));
#1030=DIRECTION('',(0.,0.,-1.));
#1031=DIRECTION('center_axis',(0.,0.,1.));
#1032=DIRECTION('ref_axis',(0.707106781186546,-0.707106781186549,0.));
#1033=DIRECTION('center_axis',(5.04878989538504E-18,-1.,0.));
#1034=DIRECTION('ref_axis',(1.,5.04878989538504E-18,0.));
#1035=DIRECTION('',(0.,0.,1.));
#1036=DIRECTION('',(1.,5.04878989538504E-18,0.));
#1037=DIRECTION('center_axis',(0.,0.,1.));
#1038=DIRECTION('ref_axis',(-0.707106781186547,-0.707106781186548,0.));
#1039=DIRECTION('',(0.,0.,-1.));
#1040=DIRECTION('center_axis',(0.,0.,1.));
#1041=DIRECTION('ref_axis',(-0.707106781186547,-0.707106781186548,0.));
#1042=DIRECTION('center_axis',(-1.,0.,0.));
#1043=DIRECTION('ref_axis',(0.,-1.,0.));
#1044=DIRECTION('',(0.,-1.,0.));
#1045=DIRECTION('',(0.,-2.83106874696987E-13,-1.));
#1046=DIRECTION('center_axis',(1.,0.,0.));
#1047=DIRECTION('ref_axis',(0.,7.59126862042087E-15,-1.));
#1048=DIRECTION('',(0.,1.,4.93121399815532E-14));
#1049=DIRECTION('center_axis',(1.,0.,0.));
#1050=DIRECTION('ref_axis',(0.,1.,4.74454288776443E-16));
#1051=DIRECTION('',(0.,0.,1.));
#1052=DIRECTION('center_axis',(1.,0.,0.));
#1053=DIRECTION('ref_axis',(0.,0.,1.));
#1054=DIRECTION('',(0.,-1.,0.));
#1055=DIRECTION('center_axis',(1.,0.,0.));
#1056=DIRECTION('ref_axis',(0.,-1.,-1.93577349820817E-13));
#1057=DIRECTION('center_axis',(0.,-1.,2.83106874696987E-13));
#1058=DIRECTION('ref_axis',(0.,-2.83106874696987E-13,-1.));
#1059=DIRECTION('',(0.,2.83106874696987E-13,1.));
#1060=DIRECTION('',(1.,0.,0.));
#1061=DIRECTION('',(1.,0.,0.));
#1062=DIRECTION('center_axis',(1.,0.,0.));
#1063=DIRECTION('ref_axis',(0.,-1.,-1.93577349820817E-13));
#1064=DIRECTION('center_axis',(-1.,0.,0.));
#1065=DIRECTION('ref_axis',(0.,-1.,-1.93577349820817E-13));
#1066=DIRECTION('',(1.,0.,0.));
#1067=DIRECTION('center_axis',(0.,0.,1.));
#1068=DIRECTION('ref_axis',(0.,-1.,0.));
#1069=DIRECTION('',(0.,1.,0.));
#1070=DIRECTION('',(1.,0.,0.));
#1071=DIRECTION('center_axis',(1.,0.,0.));
#1072=DIRECTION('ref_axis',(0.,0.,1.));
#1073=DIRECTION('center_axis',(-1.,0.,0.));
#1074=DIRECTION('ref_axis',(0.,0.,1.));
#1075=DIRECTION('',(1.,0.,0.));
#1076=DIRECTION('center_axis',(0.,1.,0.));
#1077=DIRECTION('ref_axis',(0.,0.,1.));
#1078=DIRECTION('',(0.,0.,-1.));
#1079=DIRECTION('',(1.,0.,0.));
#1080=DIRECTION('center_axis',(1.,0.,0.));
#1081=DIRECTION('ref_axis',(0.,1.,4.74454288776443E-16));
#1082=DIRECTION('center_axis',(-1.,0.,0.));
#1083=DIRECTION('ref_axis',(0.,1.,4.74454288776443E-16));
#1084=DIRECTION('',(1.,0.,0.));
#1085=DIRECTION('center_axis',(0.,4.93121399815532E-14,-1.));
#1086=DIRECTION('ref_axis',(0.,1.,4.93121399815532E-14));
#1087=DIRECTION('',(0.,-1.,-4.93121399815532E-14));
#1088=DIRECTION('',(1.,0.,0.));
#1089=DIRECTION('center_axis',(1.,0.,0.));
#1090=DIRECTION('ref_axis',(0.,7.59126862042087E-15,-1.));
#1091=DIRECTION('center_axis',(-1.,0.,0.));
#1092=DIRECTION('ref_axis',(0.,7.59126862042087E-15,-1.));
#1093=DIRECTION('center_axis',(1.,0.,0.));
#1094=DIRECTION('ref_axis',(0.,1.,0.));
#1095=DIRECTION('',(0.,0.,1.));
#1096=DIRECTION('',(0.,0.,1.));
#1097=DIRECTION('',(0.,0.,1.));
#1098=DIRECTION('',(0.,1.,-2.42618672094421E-18));
#1099=DIRECTION('center_axis',(0.,-2.42618672094421E-18,-1.));
#1100=DIRECTION('ref_axis',(0.,-1.,2.42618672094421E-18));
#1101=DIRECTION('',(-1.,0.,0.));
#1102=DIRECTION('center_axis',(0.,1.,0.));
#1103=DIRECTION('ref_axis',(0.,0.,-1.));
#1104=DIRECTION('center_axis',(5.04878989538504E-18,-1.,0.));
#1105=DIRECTION('ref_axis',(1.,5.04878989538504E-18,0.));
#1106=DIRECTION('',(0.,0.,1.));
#1107=DIRECTION('center_axis',(-1.,0.,0.));
#1108=DIRECTION('ref_axis',(0.,-1.,0.));
#1109=DIRECTION('',(0.,0.,1.));
#1110=DIRECTION('center_axis',(0.,1.,0.));
#1111=DIRECTION('ref_axis',(-1.,0.,0.));
#1112=DIRECTION('center_axis',(0.,0.,-1.));
#1113=DIRECTION('ref_axis',(-1.,0.,0.));
#1114=DIRECTION('center_axis',(0.,0.,-1.));
#1115=DIRECTION('ref_axis',(-1.,0.,0.));
#1116=CARTESIAN_POINT('',(0.,0.,0.));
#1117=CARTESIAN_POINT('Origin',(18.2880365761729,32.987360934722,2.610045729405));
#1118=CARTESIAN_POINT('',(19.3614051149809,32.987360934722,2.610045729405));
#1119=CARTESIAN_POINT('Origin',(18.2880365761729,32.987360934722,2.610045729405));
#1120=CARTESIAN_POINT('',(19.3614051149809,30.987360934722,2.610045729405));
#1121=CARTESIAN_POINT('',(19.3614051149809,32.987360934722,2.610045729405));
#1122=CARTESIAN_POINT('Origin',(18.2880365761729,30.987360934722,2.610045729405));
#1123=CARTESIAN_POINT('Origin',(13.4620269241539,32.987360934722,2.610045729405));
#1124=CARTESIAN_POINT('',(14.5353954629619,32.987360934722,2.610045729405));
#1125=CARTESIAN_POINT('Origin',(13.4620269241539,32.987360934722,2.610045729405));
#1126=CARTESIAN_POINT('',(14.5353954629619,30.987360934722,2.610045729405));
#1127=CARTESIAN_POINT('',(14.5353954629619,32.987360934722,2.610045729405));
#1128=CARTESIAN_POINT('Origin',(13.4620269241539,30.987360934722,2.610045729405));
#1129=CARTESIAN_POINT('Origin',(8.74014478038993,32.987360934722,2.610045729405));
#1130=CARTESIAN_POINT('',(9.81351331919786,32.987360934722,2.610045729405));
#1131=CARTESIAN_POINT('Origin',(8.74014478038993,32.987360934722,2.610045729405));
#1132=CARTESIAN_POINT('',(9.81351331919786,30.987360934722,2.610045729405));
#1133=CARTESIAN_POINT('',(9.81351331919786,32.987360934722,2.610045729405));
#1134=CARTESIAN_POINT('Origin',(8.74014478038993,30.987360934722,2.610045729405));
#1135=CARTESIAN_POINT('Origin',(57.487409194818,7.772027045637,-0.299949223739997));
#1136=CARTESIAN_POINT('',(57.487409194818,7.772027045637,-0.29994922374));
#1137=CARTESIAN_POINT('',(57.487409194818,7.772027045637,13.350050561152));
#1138=CARTESIAN_POINT('',(57.487409194818,7.772027045637,5.425025280576));
#1139=CARTESIAN_POINT('',(55.487409194818,7.772027045637,-0.29994922374));
#1140=CARTESIAN_POINT('',(57.487409194818,7.772027045637,-0.29994922374));
#1141=CARTESIAN_POINT('',(55.487409194818,7.772027045637,13.350050561152));
#1142=CARTESIAN_POINT('',(55.487409194818,7.772027045637,5.425025280576));
#1143=CARTESIAN_POINT('',(41.9937319024635,7.772027045637,13.350050561152));
#1144=CARTESIAN_POINT('Origin',(49.000099060198,3.00000508001,0.));
#1145=CARTESIAN_POINT('',(49.750099060198,3.00000508001,0.));
#1146=CARTESIAN_POINT('Origin',(49.000099060198,3.00000508001,0.));
#1147=CARTESIAN_POINT('',(49.750099060198,3.00000508001,-2.));
#1148=CARTESIAN_POINT('',(49.750099060198,3.00000508001,0.));
#1149=CARTESIAN_POINT('Origin',(49.000099060198,3.00000508001,-2.));
#1150=CARTESIAN_POINT('Origin',(49.000099060198,3.00000508001,-2.));
#1151=CARTESIAN_POINT('',(51.500101600203,3.00000508001,0.));
#1152=CARTESIAN_POINT('Origin',(49.000099060198,3.00000508001,0.));
#1153=CARTESIAN_POINT('',(51.500101600203,3.00000508001,-2.));
#1154=CARTESIAN_POINT('',(51.500101600203,3.00000508001,-2.));
#1155=CARTESIAN_POINT('Origin',(49.000099060198,3.00000508001,-2.));
#1156=CARTESIAN_POINT('Origin',(25.750052070104,15.0000292100585,0.));
#1157=CARTESIAN_POINT('Origin',(27.500054610109,15.000030480061,-2.));
#1158=CARTESIAN_POINT('',(-0.4872999746,-0.98729997459995,-2.));
#1159=CARTESIAN_POINT('',(55.487409194818,-0.98729997459995,-2.));
#1160=CARTESIAN_POINT('',(-0.4872999746,-0.98729997459995,-2.));
#1161=CARTESIAN_POINT('',(55.487409194818,30.987360934722,-2.));
#1162=CARTESIAN_POINT('',(55.487409194818,30.987360934722,-2.));
#1163=CARTESIAN_POINT('',(-0.487299974599997,30.987360934722,-2.));
#1164=CARTESIAN_POINT('',(54.487409194818,30.987360934722,-2.));
#1165=CARTESIAN_POINT('',(-0.4872999746,-0.98729997459995,-2.));
#1166=CARTESIAN_POINT('',(5.000007620015,3.00000508001,-2.));
#1167=CARTESIAN_POINT('Origin',(2.50000508001,3.00000508001,-2.));
#1168=CARTESIAN_POINT('',(5.000007620015,27.000053340107,-2.));
#1169=CARTESIAN_POINT('Origin',(2.50000508001,27.000053340107,-2.));
#1170=CARTESIAN_POINT('',(51.500101600203,27.000053340107,-2.));
#1171=CARTESIAN_POINT('Origin',(49.000099060198,27.000053340107,-2.));
#1172=CARTESIAN_POINT('Origin',(2.50000508001,3.00000508001,0.));
#1173=CARTESIAN_POINT('',(3.25000508001,3.00000508001,0.));
#1174=CARTESIAN_POINT('Origin',(2.50000508001,3.00000508001,0.));
#1175=CARTESIAN_POINT('',(3.25000508001,3.00000508001,-2.));
#1176=CARTESIAN_POINT('',(3.25000508001,3.00000508001,0.));
#1177=CARTESIAN_POINT('Origin',(2.50000508001,3.00000508001,-2.));
#1178=CARTESIAN_POINT('Origin',(2.50000508001,3.00000508001,-2.));
#1179=CARTESIAN_POINT('',(5.000007620015,3.00000508001,0.));
#1180=CARTESIAN_POINT('Origin',(2.50000508001,3.00000508001,0.));
#1181=CARTESIAN_POINT('',(5.000007620015,3.00000508001,-2.));
#1182=CARTESIAN_POINT('Origin',(25.750052070104,15.0000292100585,0.));
#1183=CARTESIAN_POINT('Origin',(27.500054610109,15.000030480061,-2.));
#1184=CARTESIAN_POINT('Origin',(49.000099060198,27.000053340107,0.));
#1185=CARTESIAN_POINT('',(49.750099060198,27.000053340107,0.));
#1186=CARTESIAN_POINT('Origin',(49.000099060198,27.000053340107,0.));
#1187=CARTESIAN_POINT('',(49.750099060198,27.000053340107,-2.));
#1188=CARTESIAN_POINT('',(49.750099060198,27.000053340107,0.));
#1189=CARTESIAN_POINT('Origin',(49.000099060198,27.000053340107,-2.));
#1190=CARTESIAN_POINT('Origin',(49.000099060198,27.000053340107,-2.));
#1191=CARTESIAN_POINT('',(51.500101600203,27.000053340107,0.));
#1192=CARTESIAN_POINT('Origin',(49.000099060198,27.000053340107,0.));
#1193=CARTESIAN_POINT('',(51.500101600203,27.000053340107,-2.));
#1194=CARTESIAN_POINT('Origin',(25.750052070104,15.0000292100585,0.));
#1195=CARTESIAN_POINT('Origin',(27.500054610109,15.000030480061,-2.));
#1196=CARTESIAN_POINT('Origin',(2.50000508001,27.000053340107,0.));
#1197=CARTESIAN_POINT('',(3.25000508001,27.000053340107,0.));
#1198=CARTESIAN_POINT('Origin',(2.50000508001,27.000053340107,0.));
#1199=CARTESIAN_POINT('',(3.25000508001,27.000053340107,-2.));
#1200=CARTESIAN_POINT('',(3.25000508001,27.000053340107,0.));
#1201=CARTESIAN_POINT('Origin',(2.50000508001,27.000053340107,-2.));
#1202=CARTESIAN_POINT('Origin',(2.50000508001,27.000053340107,-2.));
#1203=CARTESIAN_POINT('',(5.000007620015,27.000053340107,0.));
#1204=CARTESIAN_POINT('Origin',(2.50000508001,27.000053340107,0.));
#1205=CARTESIAN_POINT('',(5.000007620015,27.000053340107,-2.));
#1206=CARTESIAN_POINT('Origin',(25.750052070104,15.0000292100585,0.));
#1207=CARTESIAN_POINT('Origin',(27.500054610109,15.000030480061,-2.));
#1208=CARTESIAN_POINT('Origin',(-1.4872999746,31.987360934722,-2.));
#1209=CARTESIAN_POINT('',(-2.4872999746,31.987360934722,13.350050561152));
#1210=CARTESIAN_POINT('',(-1.48729997459999,32.987360934722,13.350050561152));
#1211=CARTESIAN_POINT('Origin',(-1.4872999746,31.987360934722,13.350050561152));
#1212=CARTESIAN_POINT('',(-1.48729997459999,32.987360934722,-4.));
#1213=CARTESIAN_POINT('',(-1.4872999746,32.987360934722,-2.));
#1214=CARTESIAN_POINT('',(-2.4872999746,31.987360934722,-4.));
#1215=CARTESIAN_POINT('Origin',(-1.4872999746,31.987360934722,-4.));
#1216=CARTESIAN_POINT('',(-2.4872999746,31.987360934722,-2.));
#1217=CARTESIAN_POINT('Origin',(55.487409194818,32.987360934722,-2.));
#1218=CARTESIAN_POINT('',(56.487409194818,32.987360934722,13.350050561152));
#1219=CARTESIAN_POINT('',(41.4937319024635,32.987360934722,13.350050561152));
#1220=CARTESIAN_POINT('',(56.487409194818,32.987360934722,-4.));
#1221=CARTESIAN_POINT('',(56.487409194818,32.987360934722,-2.));
#1222=CARTESIAN_POINT('',(41.4937319024635,32.987360934722,-4.));
#1223=CARTESIAN_POINT('Origin',(27.500054610109,15.000030480061,13.350050561152));
#1224=CARTESIAN_POINT('',(-2.4872999746,-1.98729997459995,13.350050561152));
#1225=CARTESIAN_POINT('',(-2.4872999746,22.9936957073915,13.350050561152));
#1226=CARTESIAN_POINT('',(-1.4872999746,-2.98729997459995,13.350050561152));
#1227=CARTESIAN_POINT('Origin',(-1.4872999746,-1.98729997459995,13.350050561152));
#1228=CARTESIAN_POINT('',(56.487409194818,-2.98729997459995,13.350050561152));
#1229=CARTESIAN_POINT('',(13.5063773177545,-2.98729997459995,13.350050561152));
#1230=CARTESIAN_POINT('',(57.487409194818,-1.98729997459995,13.350050561152));
#1231=CARTESIAN_POINT('Origin',(56.487409194818,-1.98729997459995,13.350050561152));
#1232=CARTESIAN_POINT('',(57.487409194818,7.00636525273054,13.350050561152));
#1233=CARTESIAN_POINT('',(55.487409194818,-0.98729997459995,13.350050561152));
#1234=CARTESIAN_POINT('',(55.487409194818,7.00636525273054,13.350050561152));
#1235=CARTESIAN_POINT('',(-0.4872999746,-0.98729997459995,13.350050561152));
#1236=CARTESIAN_POINT('',(13.5063773177545,-0.987299974599951,13.350050561152));
#1237=CARTESIAN_POINT('',(-0.487299974599997,30.987360934722,13.350050561152));
#1238=CARTESIAN_POINT('',(-0.487299974600002,22.9936957073915,13.350050561152));
#1239=CARTESIAN_POINT('',(55.487409194818,30.987360934722,13.350050561152));
#1240=CARTESIAN_POINT('',(41.4937319024635,30.987360934722,13.350050561152));
#1241=CARTESIAN_POINT('',(55.487409194818,22.072026802471,13.350050561152));
#1242=CARTESIAN_POINT('',(55.487409194818,7.00636525273054,13.350050561152));
#1243=CARTESIAN_POINT('',(57.487409194818,22.072026802471,13.350050561152));
#1244=CARTESIAN_POINT('',(41.9937319024635,22.072026802471,13.350050561152));
#1245=CARTESIAN_POINT('',(57.487409194818,31.987360934722,13.350050561152));
#1246=CARTESIAN_POINT('',(57.487409194818,7.00636525273054,13.350050561152));
#1247=CARTESIAN_POINT('Origin',(56.487409194818,31.987360934722,13.350050561152));
#1248=CARTESIAN_POINT('Origin',(56.487409194818,31.987360934722,-2.));
#1249=CARTESIAN_POINT('',(57.487409194818,31.987360934722,-4.));
#1250=CARTESIAN_POINT('',(57.487409194818,31.987360934722,-2.));
#1251=CARTESIAN_POINT('Origin',(56.487409194818,31.987360934722,-4.));
#1252=CARTESIAN_POINT('Origin',(57.487409194818,-0.987299974599951,-2.));
#1253=CARTESIAN_POINT('',(57.487409194818,22.072026802471,-0.29994922374));
#1254=CARTESIAN_POINT('',(57.487409194818,22.072026802471,5.425025280576));
#1255=CARTESIAN_POINT('',(57.487409194818,10.5423634139355,-0.29994922374));
#1256=CARTESIAN_POINT('',(57.487409194818,-1.98729997459995,-4.));
#1257=CARTESIAN_POINT('',(57.487409194818,-1.98729997459995,-2.));
#1258=CARTESIAN_POINT('',(57.487409194818,7.00636525273054,-4.));
#1259=CARTESIAN_POINT('Origin',(56.487409194818,-1.98729997459995,-2.));
#1260=CARTESIAN_POINT('',(56.487409194818,-2.98729997459995,-4.));
#1261=CARTESIAN_POINT('',(56.487409194818,-2.98729997459995,-2.));
#1262=CARTESIAN_POINT('Origin',(56.487409194818,-1.98729997459995,-4.));
#1263=CARTESIAN_POINT('Origin',(-0.4872999746,-2.98729997459995,-2.));
#1264=CARTESIAN_POINT('',(-1.4872999746,-2.98729997459995,-4.));
#1265=CARTESIAN_POINT('',(-1.4872999746,-2.98729997459995,-2.));
#1266=CARTESIAN_POINT('',(13.5063773177545,-2.98729997459995,-4.));
#1267=CARTESIAN_POINT('Origin',(-1.4872999746,-1.98729997459995,-2.));
#1268=CARTESIAN_POINT('',(-2.4872999746,-1.98729997459995,-4.));
#1269=CARTESIAN_POINT('',(-2.4872999746,-1.98729997459995,-2.));
#1270=CARTESIAN_POINT('Origin',(-1.4872999746,-1.98729997459995,-4.));
#1271=CARTESIAN_POINT('Origin',(-2.4872999746,30.987360934722,-2.));
#1272=CARTESIAN_POINT('',(-2.4872999746,22.9936957073915,-4.));
#1273=CARTESIAN_POINT('',(-2.4872999746,11.6414326164642,3.85003808649577));
#1274=CARTESIAN_POINT('',(-2.4872999746,11.6414326164638,2.65003810098177));
#1275=CARTESIAN_POINT('',(-2.4872999746,11.6414326164633,0.925019043250625));
#1276=CARTESIAN_POINT('',(-2.4872999746,12.811432604754,1.48003811269166));
#1277=CARTESIAN_POINT('Origin',(-2.4872999746,12.811432604754,2.650038100982));
#1278=CARTESIAN_POINT('',(-2.4872999746,19.751432520976,1.480038112692));
#1279=CARTESIAN_POINT('',(-2.4872999746,21.8993967697379,1.48003811269211));
#1280=CARTESIAN_POINT('',(-2.4872999746,20.921432509266,2.650038100982));
#1281=CARTESIAN_POINT('Origin',(-2.4872999746,19.751432520976,2.650038100982));
#1282=CARTESIAN_POINT('',(-2.4872999746,20.921432509266,3.850038086496));
#1283=CARTESIAN_POINT('',(-2.4872999746,20.921432509266,0.325019050491));
#1284=CARTESIAN_POINT('',(-2.4872999746,19.751432520976,5.020038074786));
#1285=CARTESIAN_POINT('Origin',(-2.4872999746,19.751432520976,3.850038086496));
#1286=CARTESIAN_POINT('',(-2.4872999746,12.811432604754,5.020038074786));
#1287=CARTESIAN_POINT('',(-2.4872999746,25.369396727849,5.020038074786));
#1288=CARTESIAN_POINT('Origin',(-2.4872999746,12.811432604754,3.850038086496));
#1289=CARTESIAN_POINT('Origin',(-2.4872999746,11.6414326164642,3.85003808649577));
#1290=CARTESIAN_POINT('',(-0.4872999746,11.6414326164638,2.65003810098177));
#1291=CARTESIAN_POINT('',(-0.4872999746,11.6414326164642,3.85003808649577));
#1292=CARTESIAN_POINT('',(-0.4872999746,11.6414326164633,0.925019043250625));
#1293=CARTESIAN_POINT('',(-2.4872999746,11.6414326164638,2.65003810098177));
#1294=CARTESIAN_POINT('',(-2.4872999746,11.6414326164642,3.85003808649577));
#1295=CARTESIAN_POINT('Origin',(-2.4872999746,12.811432604754,3.850038086496));
#1296=CARTESIAN_POINT('',(-0.4872999746,12.811432604754,5.020038074786));
#1297=CARTESIAN_POINT('Origin',(-0.4872999746,12.811432604754,3.850038086496));
#1298=CARTESIAN_POINT('',(-2.4872999746,12.811432604754,5.020038074786));
#1299=CARTESIAN_POINT('Origin',(-2.4872999746,19.751432520976,5.020038074786));
#1300=CARTESIAN_POINT('',(-0.4872999746,19.751432520976,5.020038074786));
#1301=CARTESIAN_POINT('',(-0.4872999746,25.369396727849,5.020038074786));
#1302=CARTESIAN_POINT('',(-2.4872999746,19.751432520976,5.020038074786));
#1303=CARTESIAN_POINT('Origin',(-2.4872999746,19.751432520976,3.850038086496));
#1304=CARTESIAN_POINT('',(-0.4872999746,20.921432509266,3.850038086496));
#1305=CARTESIAN_POINT('Origin',(-0.4872999746,19.751432520976,3.850038086496));
#1306=CARTESIAN_POINT('',(-2.4872999746,20.921432509266,3.850038086496));
#1307=CARTESIAN_POINT('Origin',(-2.4872999746,20.921432509266,2.650038100982));
#1308=CARTESIAN_POINT('',(-0.4872999746,20.921432509266,2.650038100982));
#1309=CARTESIAN_POINT('',(-0.4872999746,20.921432509266,0.325019050491));
#1310=CARTESIAN_POINT('',(-2.4872999746,20.921432509266,2.650038100982));
#1311=CARTESIAN_POINT('Origin',(-2.4872999746,19.751432520976,2.650038100982));
#1312=CARTESIAN_POINT('',(-0.4872999746,19.751432520976,1.480038112692));
#1313=CARTESIAN_POINT('Origin',(-0.4872999746,19.751432520976,2.650038100982));
#1314=CARTESIAN_POINT('',(-2.4872999746,19.751432520976,1.480038112692));
#1315=CARTESIAN_POINT('Origin',(-2.4872999746,12.811432604754,1.48003811269166));
#1316=CARTESIAN_POINT('',(-0.4872999746,12.811432604754,1.48003811269166));
#1317=CARTESIAN_POINT('',(-0.4872999746,21.8993967697379,1.48003811269211));
#1318=CARTESIAN_POINT('',(-2.4872999746,12.811432604754,1.48003811269166));
#1319=CARTESIAN_POINT('Origin',(-2.4872999746,12.811432604754,2.650038100982));
#1320=CARTESIAN_POINT('Origin',(-0.4872999746,12.811432604754,2.650038100982));
#1321=CARTESIAN_POINT('Origin',(55.487409194818,-0.987299974599951,-2.));
#1322=CARTESIAN_POINT('',(55.487409194818,22.072026802471,-0.29994922374));
#1323=CARTESIAN_POINT('',(55.487409194818,22.072026802471,5.425025280576));
#1324=CARTESIAN_POINT('',(55.487409194818,30.987360934722,-2.));
#1325=CARTESIAN_POINT('',(55.487409194818,-0.98729997459995,-2.));
#1326=CARTESIAN_POINT('',(55.487409194818,10.5423634139355,-0.29994922374));
#1327=CARTESIAN_POINT('Origin',(57.487409194818,22.072026802471,-0.29994922374));
#1328=CARTESIAN_POINT('',(57.487409194818,22.072026802471,-0.29994922374));
#1329=CARTESIAN_POINT('Origin',(57.487409194818,22.072026802471,12.350050561152));
#1330=CARTESIAN_POINT('Origin',(-0.4872999746,-0.98729997459995,-2.));
#1331=CARTESIAN_POINT('',(-0.4872999746,-0.98729997459995,-2.));
#1332=CARTESIAN_POINT('Origin',(-0.4872999746,30.987360934722,-2.));
#1333=CARTESIAN_POINT('',(-0.487299974599997,30.987360934722,-2.));
#1334=CARTESIAN_POINT('Origin',(55.487409194818,30.987360934722,-2.));
#1335=CARTESIAN_POINT('Origin',(27.500054610109,15.000030480061,-2.));
#1336=CARTESIAN_POINT('Origin',(27.500054610109,15.000030480061,-4.));
#1337=UNCERTAINTY_MEASURE_WITH_UNIT(LENGTH_MEASURE(0.01),#1341,
'DISTANCE_ACCURACY_VALUE',
'Maximum model space distance between geometric entities at asserted c
onnectivities');
#1338=UNCERTAINTY_MEASURE_WITH_UNIT(LENGTH_MEASURE(0.01),#1341,
'DISTANCE_ACCURACY_VALUE',
'Maximum model space distance between geometric entities at asserted c
onnectivities');
#1339=(
GEOMETRIC_REPRESENTATION_CONTEXT(3)
GLOBAL_UNCERTAINTY_ASSIGNED_CONTEXT((#1337))
GLOBAL_UNIT_ASSIGNED_CONTEXT((#1341,#1343,#1344))
REPRESENTATION_CONTEXT('','3D')
);
#1340=(
GEOMETRIC_REPRESENTATION_CONTEXT(3)
GLOBAL_UNCERTAINTY_ASSIGNED_CONTEXT((#1338))
GLOBAL_UNIT_ASSIGNED_CONTEXT((#1341,#1343,#1344))
REPRESENTATION_CONTEXT('','3D')
);
#1341=(
LENGTH_UNIT()
NAMED_UNIT(*)
SI_UNIT(.MILLI.,.METRE.)
);
#1342=(
LENGTH_UNIT()
NAMED_UNIT(*)
SI_UNIT($,.METRE.)
);
#1343=(
NAMED_UNIT(*)
PLANE_ANGLE_UNIT()
SI_UNIT($,.RADIAN.)
);
#1344=(
NAMED_UNIT(*)
SI_UNIT($,.STERADIAN.)
SOLID_ANGLE_UNIT()
);
#1345=SHAPE_DEFINITION_REPRESENTATION(#1346,#1347);
#1346=PRODUCT_DEFINITION_SHAPE('',$,#1349);
#1347=SHAPE_REPRESENTATION('',(#797),#1339);
#1348=PRODUCT_DEFINITION_CONTEXT('part definition',#1353,'design');
#1349=PRODUCT_DEFINITION('Box for PCB','Box for PCB',#1350,#1348);
#1350=PRODUCT_DEFINITION_FORMATION('',$,#1355);
#1351=PRODUCT_RELATED_PRODUCT_CATEGORY('Box for PCB','Box for PCB',(#1355));
#1352=APPLICATION_PROTOCOL_DEFINITION('international standard',
'automotive_design',2009,#1353);
#1353=APPLICATION_CONTEXT(
'Core Data for Automotive Mechanical Design Process');
#1354=PRODUCT_CONTEXT('part definition',#1353,'mechanical');
#1355=PRODUCT('Box for PCB','Box for PCB',$,(#1354));
#1356=PRESENTATION_STYLE_ASSIGNMENT((#1357));
#1357=SURFACE_STYLE_USAGE(.BOTH.,#1358);
#1358=SURFACE_SIDE_STYLE('',(#1359));
#1359=SURFACE_STYLE_FILL_AREA(#1360);
#1360=FILL_AREA_STYLE('Steel - Satin',(#1361));
#1361=FILL_AREA_STYLE_COLOUR('Steel - Satin',#1362);
#1362=COLOUR_RGB('Steel - Satin',0.627450980392157,0.627450980392157,0.627450980392157);
ENDSEC;
END-ISO-10303-21;
