ISO-10303-21;
HEADER;
/* Generated by software containing ST-Developer
 * from STEP Tools, Inc. (www.steptools.com) 
 */

FILE_DESCRIPTION(
/* description */ (''),
/* implementation_level */ '2;1');

FILE_NAME(
/* name */ 'lid.step',
/* time_stamp */ '2026-06-08T20:22:35+02:00',
/* author */ (''),
/* organization */ (''),
/* preprocessor_version */ 'ST-DEVELOPER v20.1',
/* originating_system */ 'Autodesk Translation Framework v15.8.0.0',
/* authorisation */ '');

FILE_SCHEMA (('AUTOMOTIVE_DESIGN { 1 0 10303 214 3 1 1 }'));
ENDSEC;

DATA;
#10=MECHANICAL_DESIGN_GEOMETRIC_PRESENTATION_REPRESENTATION('',(#13),#1097);
#11=SHAPE_REPRESENTATION_RELATIONSHIP('SRR','None',#1104,#12);
#12=ADVANCED_BREP_SHAPE_REPRESENTATION('',(#14),#1096);
#13=STYLED_ITEM('',(#1113),#14);
#14=MANIFOLD_SOLID_BREP('Body1',#675);
#15=CYLINDRICAL_SURFACE('',#724,0.999999999999988);
#16=CYLINDRICAL_SURFACE('',#726,1.);
#17=CYLINDRICAL_SURFACE('',#728,0.999999999999999);
#18=CYLINDRICAL_SURFACE('',#730,0.999999999999999);
#19=CIRCLE('',#705,0.999999999999999);
#20=CIRCLE('',#706,0.999999999999999);
#21=CIRCLE('',#707,1.);
#22=CIRCLE('',#708,0.999999999999988);
#23=CIRCLE('',#719,0.999999999999988);
#24=CIRCLE('',#720,1.);
#25=CIRCLE('',#721,0.999999999999999);
#26=CIRCLE('',#722,0.999999999999999);
#27=FACE_OUTER_BOUND('',#61,.T.);
#28=FACE_OUTER_BOUND('',#62,.T.);
#29=FACE_OUTER_BOUND('',#63,.T.);
#30=FACE_OUTER_BOUND('',#64,.T.);
#31=FACE_OUTER_BOUND('',#65,.T.);
#32=FACE_OUTER_BOUND('',#66,.T.);
#33=FACE_OUTER_BOUND('',#67,.T.);
#34=FACE_OUTER_BOUND('',#68,.T.);
#35=FACE_OUTER_BOUND('',#69,.T.);
#36=FACE_OUTER_BOUND('',#70,.T.);
#37=FACE_OUTER_BOUND('',#71,.T.);
#38=FACE_OUTER_BOUND('',#72,.T.);
#39=FACE_OUTER_BOUND('',#73,.T.);
#40=FACE_OUTER_BOUND('',#74,.T.);
#41=FACE_OUTER_BOUND('',#75,.T.);
#42=FACE_OUTER_BOUND('',#76,.T.);
#43=FACE_OUTER_BOUND('',#77,.T.);
#44=FACE_OUTER_BOUND('',#78,.T.);
#45=FACE_OUTER_BOUND('',#79,.T.);
#46=FACE_OUTER_BOUND('',#80,.T.);
#47=FACE_OUTER_BOUND('',#81,.T.);
#48=FACE_OUTER_BOUND('',#82,.T.);
#49=FACE_OUTER_BOUND('',#83,.T.);
#50=FACE_OUTER_BOUND('',#84,.T.);
#51=FACE_OUTER_BOUND('',#85,.T.);
#52=FACE_OUTER_BOUND('',#86,.T.);
#53=FACE_OUTER_BOUND('',#87,.T.);
#54=FACE_OUTER_BOUND('',#88,.T.);
#55=FACE_OUTER_BOUND('',#89,.T.);
#56=FACE_OUTER_BOUND('',#90,.T.);
#57=FACE_OUTER_BOUND('',#91,.T.);
#58=FACE_OUTER_BOUND('',#92,.T.);
#59=FACE_OUTER_BOUND('',#93,.T.);
#60=FACE_OUTER_BOUND('',#94,.T.);
#61=EDGE_LOOP('',(#423,#424,#425,#426));
#62=EDGE_LOOP('',(#427,#428,#429,#430));
#63=EDGE_LOOP('',(#431,#432,#433,#434,#435,#436));
#64=EDGE_LOOP('',(#437,#438,#439,#440,#441));
#65=EDGE_LOOP('',(#442,#443,#444,#445,#446,#447,#448,#449,#450,#451,#452,
#453));
#66=EDGE_LOOP('',(#454,#455,#456,#457,#458));
#67=EDGE_LOOP('',(#459,#460,#461,#462));
#68=EDGE_LOOP('',(#463,#464,#465,#466));
#69=EDGE_LOOP('',(#467,#468,#469,#470));
#70=EDGE_LOOP('',(#471,#472,#473,#474));
#71=EDGE_LOOP('',(#475,#476,#477,#478,#479,#480));
#72=EDGE_LOOP('',(#481,#482,#483,#484));
#73=EDGE_LOOP('',(#485,#486,#487,#488));
#74=EDGE_LOOP('',(#489,#490,#491,#492));
#75=EDGE_LOOP('',(#493,#494,#495,#496));
#76=EDGE_LOOP('',(#497,#498,#499,#500,#501,#502,#503,#504,#505,#506,#507,
#508,#509,#510,#511,#512));
#77=EDGE_LOOP('',(#513,#514,#515,#516));
#78=EDGE_LOOP('',(#517,#518,#519,#520));
#79=EDGE_LOOP('',(#521,#522,#523,#524));
#80=EDGE_LOOP('',(#525,#526,#527,#528,#529,#530,#531));
#81=EDGE_LOOP('',(#532,#533,#534,#535,#536,#537,#538,#539,#540,#541,#542,
#543));
#82=EDGE_LOOP('',(#544,#545,#546,#547,#548,#549,#550));
#83=EDGE_LOOP('',(#551,#552,#553,#554));
#84=EDGE_LOOP('',(#555,#556,#557,#558));
#85=EDGE_LOOP('',(#559,#560,#561,#562));
#86=EDGE_LOOP('',(#563,#564,#565,#566,#567,#568,#569,#570));
#87=EDGE_LOOP('',(#571,#572,#573,#574,#575,#576,#577,#578,#579,#580,#581,
#582));
#88=EDGE_LOOP('',(#583,#584,#585,#586));
#89=EDGE_LOOP('',(#587,#588,#589,#590));
#90=EDGE_LOOP('',(#591,#592,#593,#594));
#91=EDGE_LOOP('',(#595,#596,#597,#598));
#92=EDGE_LOOP('',(#599,#600,#601,#602));
#93=EDGE_LOOP('',(#603,#604,#605,#606));
#94=EDGE_LOOP('',(#607,#608,#609,#610));
#95=LINE('',#907,#181);
#96=LINE('',#909,#182);
#97=LINE('',#911,#183);
#98=LINE('',#912,#184);
#99=LINE('',#916,#185);
#100=LINE('',#918,#186);
#101=LINE('',#920,#187);
#102=LINE('',#921,#188);
#103=LINE('',#924,#189);
#104=LINE('',#926,#190);
#105=LINE('',#928,#191);
#106=LINE('',#930,#192);
#107=LINE('',#931,#193);
#108=LINE('',#934,#194);
#109=LINE('',#936,#195);
#110=LINE('',#938,#196);
#111=LINE('',#939,#197);
#112=LINE('',#942,#198);
#113=LINE('',#944,#199);
#114=LINE('',#946,#200);
#115=LINE('',#947,#201);
#116=LINE('',#949,#202);
#117=LINE('',#951,#203);
#118=LINE('',#953,#204);
#119=LINE('',#954,#205);
#120=LINE('',#957,#206);
#121=LINE('',#959,#207);
#122=LINE('',#960,#208);
#123=LINE('',#963,#209);
#124=LINE('',#965,#210);
#125=LINE('',#966,#211);
#126=LINE('',#969,#212);
#127=LINE('',#970,#213);
#128=LINE('',#973,#214);
#129=LINE('',#974,#215);
#130=LINE('',#977,#216);
#131=LINE('',#978,#217);
#132=LINE('',#981,#218);
#133=LINE('',#983,#219);
#134=LINE('',#984,#220);
#135=LINE('',#987,#221);
#136=LINE('',#989,#222);
#137=LINE('',#990,#223);
#138=LINE('',#993,#224);
#139=LINE('',#994,#225);
#140=LINE('',#997,#226);
#141=LINE('',#998,#227);
#142=LINE('',#1000,#228);
#143=LINE('',#1003,#229);
#144=LINE('',#1005,#230);
#145=LINE('',#1009,#231);
#146=LINE('',#1013,#232);
#147=LINE('',#1017,#233);
#148=LINE('',#1021,#234);
#149=LINE('',#1022,#235);
#150=LINE('',#1026,#236);
#151=LINE('',#1028,#237);
#152=LINE('',#1030,#238);
#153=LINE('',#1031,#239);
#154=LINE('',#1033,#240);
#155=LINE('',#1034,#241);
#156=LINE('',#1037,#242);
#157=LINE('',#1038,#243);
#158=LINE('',#1040,#244);
#159=LINE('',#1043,#245);
#160=LINE('',#1045,#246);
#161=LINE('',#1046,#247);
#162=LINE('',#1050,#248);
#163=LINE('',#1051,#249);
#164=LINE('',#1053,#250);
#165=LINE('',#1054,#251);
#166=LINE('',#1056,#252);
#167=LINE('',#1057,#253);
#168=LINE('',#1060,#254);
#169=LINE('',#1064,#255);
#170=LINE('',#1068,#256);
#171=LINE('',#1072,#257);
#172=LINE('',#1076,#258);
#173=LINE('',#1079,#259);
#174=LINE('',#1080,#260);
#175=LINE('',#1082,#261);
#176=LINE('',#1084,#262);
#177=LINE('',#1086,#263);
#178=LINE('',#1088,#264);
#179=LINE('',#1090,#265);
#180=LINE('',#1092,#266);
#181=VECTOR('',#735,10.);
#182=VECTOR('',#736,10.);
#183=VECTOR('',#737,10.);
#184=VECTOR('',#738,10.);
#185=VECTOR('',#741,10.);
#186=VECTOR('',#742,10.);
#187=VECTOR('',#743,10.);
#188=VECTOR('',#744,10.);
#189=VECTOR('',#747,10.);
#190=VECTOR('',#748,10.);
#191=VECTOR('',#749,10.);
#192=VECTOR('',#750,10.);
#193=VECTOR('',#751,10.);
#194=VECTOR('',#754,10.);
#195=VECTOR('',#755,10.);
#196=VECTOR('',#756,10.);
#197=VECTOR('',#757,10.);
#198=VECTOR('',#760,10.);
#199=VECTOR('',#761,10.);
#200=VECTOR('',#762,10.);
#201=VECTOR('',#763,10.);
#202=VECTOR('',#764,10.);
#203=VECTOR('',#765,10.);
#204=VECTOR('',#766,10.);
#205=VECTOR('',#767,10.);
#206=VECTOR('',#770,10.);
#207=VECTOR('',#771,10.);
#208=VECTOR('',#772,10.);
#209=VECTOR('',#775,10.);
#210=VECTOR('',#776,10.);
#211=VECTOR('',#777,10.);
#212=VECTOR('',#780,10.);
#213=VECTOR('',#781,10.);
#214=VECTOR('',#784,10.);
#215=VECTOR('',#785,10.);
#216=VECTOR('',#788,10.);
#217=VECTOR('',#789,10.);
#218=VECTOR('',#792,10.);
#219=VECTOR('',#793,10.);
#220=VECTOR('',#794,10.);
#221=VECTOR('',#797,10.);
#222=VECTOR('',#798,10.);
#223=VECTOR('',#799,10.);
#224=VECTOR('',#802,10.);
#225=VECTOR('',#803,10.);
#226=VECTOR('',#806,10.);
#227=VECTOR('',#807,10.);
#228=VECTOR('',#810,10.);
#229=VECTOR('',#813,10.);
#230=VECTOR('',#814,10.);
#231=VECTOR('',#817,10.);
#232=VECTOR('',#820,10.);
#233=VECTOR('',#823,10.);
#234=VECTOR('',#826,10.);
#235=VECTOR('',#827,10.);
#236=VECTOR('',#830,10.);
#237=VECTOR('',#831,10.);
#238=VECTOR('',#832,10.);
#239=VECTOR('',#833,10.);
#240=VECTOR('',#836,10.);
#241=VECTOR('',#837,10.);
#242=VECTOR('',#840,10.);
#243=VECTOR('',#841,10.);
#244=VECTOR('',#844,10.);
#245=VECTOR('',#847,10.);
#246=VECTOR('',#848,10.);
#247=VECTOR('',#849,10.);
#248=VECTOR('',#852,10.);
#249=VECTOR('',#853,10.);
#250=VECTOR('',#854,10.);
#251=VECTOR('',#855,10.);
#252=VECTOR('',#858,10.);
#253=VECTOR('',#859,10.);
#254=VECTOR('',#864,10.);
#255=VECTOR('',#867,10.);
#256=VECTOR('',#870,10.);
#257=VECTOR('',#873,10.);
#258=VECTOR('',#876,10.);
#259=VECTOR('',#881,10.);
#260=VECTOR('',#882,10.);
#261=VECTOR('',#885,10.);
#262=VECTOR('',#888,10.);
#263=VECTOR('',#891,10.);
#264=VECTOR('',#894,10.);
#265=VECTOR('',#897,10.);
#266=VECTOR('',#900,10.);
#267=VERTEX_POINT('',#905);
#268=VERTEX_POINT('',#906);
#269=VERTEX_POINT('',#908);
#270=VERTEX_POINT('',#910);
#271=VERTEX_POINT('',#914);
#272=VERTEX_POINT('',#915);
#273=VERTEX_POINT('',#917);
#274=VERTEX_POINT('',#919);
#275=VERTEX_POINT('',#923);
#276=VERTEX_POINT('',#925);
#277=VERTEX_POINT('',#927);
#278=VERTEX_POINT('',#929);
#279=VERTEX_POINT('',#933);
#280=VERTEX_POINT('',#935);
#281=VERTEX_POINT('',#937);
#282=VERTEX_POINT('',#941);
#283=VERTEX_POINT('',#943);
#284=VERTEX_POINT('',#945);
#285=VERTEX_POINT('',#948);
#286=VERTEX_POINT('',#950);
#287=VERTEX_POINT('',#952);
#288=VERTEX_POINT('',#956);
#289=VERTEX_POINT('',#958);
#290=VERTEX_POINT('',#962);
#291=VERTEX_POINT('',#964);
#292=VERTEX_POINT('',#968);
#293=VERTEX_POINT('',#972);
#294=VERTEX_POINT('',#976);
#295=VERTEX_POINT('',#980);
#296=VERTEX_POINT('',#982);
#297=VERTEX_POINT('',#986);
#298=VERTEX_POINT('',#988);
#299=VERTEX_POINT('',#992);
#300=VERTEX_POINT('',#996);
#301=VERTEX_POINT('',#1002);
#302=VERTEX_POINT('',#1004);
#303=VERTEX_POINT('',#1006);
#304=VERTEX_POINT('',#1008);
#305=VERTEX_POINT('',#1010);
#306=VERTEX_POINT('',#1012);
#307=VERTEX_POINT('',#1014);
#308=VERTEX_POINT('',#1016);
#309=VERTEX_POINT('',#1018);
#310=VERTEX_POINT('',#1020);
#311=VERTEX_POINT('',#1024);
#312=VERTEX_POINT('',#1025);
#313=VERTEX_POINT('',#1027);
#314=VERTEX_POINT('',#1029);
#315=VERTEX_POINT('',#1036);
#316=VERTEX_POINT('',#1042);
#317=VERTEX_POINT('',#1044);
#318=VERTEX_POINT('',#1048);
#319=VERTEX_POINT('',#1049);
#320=VERTEX_POINT('',#1052);
#321=VERTEX_POINT('',#1062);
#322=VERTEX_POINT('',#1063);
#323=VERTEX_POINT('',#1065);
#324=VERTEX_POINT('',#1067);
#325=VERTEX_POINT('',#1069);
#326=VERTEX_POINT('',#1071);
#327=VERTEX_POINT('',#1073);
#328=VERTEX_POINT('',#1075);
#329=EDGE_CURVE('',#267,#268,#95,.T.);
#330=EDGE_CURVE('',#269,#267,#96,.T.);
#331=EDGE_CURVE('',#270,#269,#97,.F.);
#332=EDGE_CURVE('',#268,#270,#98,.T.);
#333=EDGE_CURVE('',#271,#272,#99,.T.);
#334=EDGE_CURVE('',#273,#271,#100,.T.);
#335=EDGE_CURVE('',#274,#273,#101,.F.);
#336=EDGE_CURVE('',#274,#272,#102,.T.);
#337=EDGE_CURVE('',#275,#267,#103,.T.);
#338=EDGE_CURVE('',#276,#268,#104,.T.);
#339=EDGE_CURVE('',#277,#276,#105,.T.);
#340=EDGE_CURVE('',#278,#277,#106,.T.);
#341=EDGE_CURVE('',#278,#275,#107,.T.);
#342=EDGE_CURVE('',#279,#273,#108,.F.);
#343=EDGE_CURVE('',#280,#279,#109,.F.);
#344=EDGE_CURVE('',#281,#280,#110,.F.);
#345=EDGE_CURVE('',#281,#274,#111,.F.);
#346=EDGE_CURVE('',#270,#282,#112,.F.);
#347=EDGE_CURVE('',#282,#283,#113,.F.);
#348=EDGE_CURVE('',#283,#284,#114,.F.);
#349=EDGE_CURVE('',#284,#279,#115,.F.);
#350=EDGE_CURVE('',#271,#285,#116,.T.);
#351=EDGE_CURVE('',#285,#286,#117,.T.);
#352=EDGE_CURVE('',#286,#287,#118,.T.);
#353=EDGE_CURVE('',#287,#276,#119,.T.);
#354=EDGE_CURVE('',#288,#269,#120,.T.);
#355=EDGE_CURVE('',#289,#288,#121,.F.);
#356=EDGE_CURVE('',#289,#282,#122,.F.);
#357=EDGE_CURVE('',#290,#275,#123,.T.);
#358=EDGE_CURVE('',#291,#278,#124,.T.);
#359=EDGE_CURVE('',#290,#291,#125,.T.);
#360=EDGE_CURVE('',#277,#292,#126,.T.);
#361=EDGE_CURVE('',#292,#287,#127,.T.);
#362=EDGE_CURVE('',#292,#293,#128,.T.);
#363=EDGE_CURVE('',#293,#286,#129,.T.);
#364=EDGE_CURVE('',#293,#294,#130,.T.);
#365=EDGE_CURVE('',#294,#285,#131,.T.);
#366=EDGE_CURVE('',#272,#295,#132,.T.);
#367=EDGE_CURVE('',#296,#295,#133,.T.);
#368=EDGE_CURVE('',#294,#296,#134,.T.);
#369=EDGE_CURVE('',#295,#297,#135,.T.);
#370=EDGE_CURVE('',#298,#297,#136,.T.);
#371=EDGE_CURVE('',#296,#298,#137,.T.);
#372=EDGE_CURVE('',#280,#299,#138,.F.);
#373=EDGE_CURVE('',#299,#284,#139,.F.);
#374=EDGE_CURVE('',#299,#300,#140,.F.);
#375=EDGE_CURVE('',#300,#283,#141,.T.);
#376=EDGE_CURVE('',#300,#289,#142,.F.);
#377=EDGE_CURVE('',#288,#301,#143,.T.);
#378=EDGE_CURVE('',#301,#302,#144,.T.);
#379=EDGE_CURVE('',#303,#302,#19,.T.);
#380=EDGE_CURVE('',#304,#303,#145,.T.);
#381=EDGE_CURVE('',#305,#304,#20,.T.);
#382=EDGE_CURVE('',#306,#305,#146,.T.);
#383=EDGE_CURVE('',#307,#306,#21,.T.);
#384=EDGE_CURVE('',#308,#307,#147,.T.);
#385=EDGE_CURVE('',#309,#308,#22,.T.);
#386=EDGE_CURVE('',#309,#310,#148,.T.);
#387=EDGE_CURVE('',#310,#281,#149,.T.);
#388=EDGE_CURVE('',#311,#312,#150,.T.);
#389=EDGE_CURVE('',#311,#313,#151,.T.);
#390=EDGE_CURVE('',#314,#313,#152,.T.);
#391=EDGE_CURVE('',#312,#314,#153,.T.);
#392=EDGE_CURVE('',#312,#291,#154,.T.);
#393=EDGE_CURVE('',#290,#314,#155,.T.);
#394=EDGE_CURVE('',#315,#269,#156,.T.);
#395=EDGE_CURVE('',#301,#315,#157,.T.);
#396=EDGE_CURVE('',#313,#315,#158,.T.);
#397=EDGE_CURVE('',#298,#316,#159,.T.);
#398=EDGE_CURVE('',#316,#317,#160,.T.);
#399=EDGE_CURVE('',#317,#311,#161,.T.);
#400=EDGE_CURVE('',#318,#319,#162,.T.);
#401=EDGE_CURVE('',#319,#297,#163,.T.);
#402=EDGE_CURVE('',#274,#320,#164,.T.);
#403=EDGE_CURVE('',#320,#318,#165,.T.);
#404=EDGE_CURVE('',#316,#319,#166,.T.);
#405=EDGE_CURVE('',#317,#318,#167,.T.);
#406=EDGE_CURVE('',#310,#320,#168,.T.);
#407=EDGE_CURVE('',#321,#322,#169,.T.);
#408=EDGE_CURVE('',#322,#323,#23,.T.);
#409=EDGE_CURVE('',#323,#324,#170,.T.);
#410=EDGE_CURVE('',#324,#325,#24,.T.);
#411=EDGE_CURVE('',#325,#326,#171,.T.);
#412=EDGE_CURVE('',#326,#327,#25,.T.);
#413=EDGE_CURVE('',#327,#328,#172,.T.);
#414=EDGE_CURVE('',#328,#321,#26,.T.);
#415=EDGE_CURVE('',#309,#322,#173,.T.);
#416=EDGE_CURVE('',#302,#321,#174,.T.);
#417=EDGE_CURVE('',#308,#323,#175,.T.);
#418=EDGE_CURVE('',#307,#324,#176,.T.);
#419=EDGE_CURVE('',#306,#325,#177,.T.);
#420=EDGE_CURVE('',#305,#326,#178,.T.);
#421=EDGE_CURVE('',#304,#327,#179,.T.);
#422=EDGE_CURVE('',#303,#328,#180,.T.);
#423=ORIENTED_EDGE('',*,*,#329,.F.);
#424=ORIENTED_EDGE('',*,*,#330,.F.);
#425=ORIENTED_EDGE('',*,*,#331,.F.);
#426=ORIENTED_EDGE('',*,*,#332,.F.);
#427=ORIENTED_EDGE('',*,*,#333,.F.);
#428=ORIENTED_EDGE('',*,*,#334,.F.);
#429=ORIENTED_EDGE('',*,*,#335,.F.);
#430=ORIENTED_EDGE('',*,*,#336,.T.);
#431=ORIENTED_EDGE('',*,*,#337,.T.);
#432=ORIENTED_EDGE('',*,*,#329,.T.);
#433=ORIENTED_EDGE('',*,*,#338,.F.);
#434=ORIENTED_EDGE('',*,*,#339,.F.);
#435=ORIENTED_EDGE('',*,*,#340,.F.);
#436=ORIENTED_EDGE('',*,*,#341,.T.);
#437=ORIENTED_EDGE('',*,*,#335,.T.);
#438=ORIENTED_EDGE('',*,*,#342,.F.);
#439=ORIENTED_EDGE('',*,*,#343,.F.);
#440=ORIENTED_EDGE('',*,*,#344,.F.);
#441=ORIENTED_EDGE('',*,*,#345,.T.);
#442=ORIENTED_EDGE('',*,*,#332,.T.);
#443=ORIENTED_EDGE('',*,*,#346,.T.);
#444=ORIENTED_EDGE('',*,*,#347,.T.);
#445=ORIENTED_EDGE('',*,*,#348,.T.);
#446=ORIENTED_EDGE('',*,*,#349,.T.);
#447=ORIENTED_EDGE('',*,*,#342,.T.);
#448=ORIENTED_EDGE('',*,*,#334,.T.);
#449=ORIENTED_EDGE('',*,*,#350,.T.);
#450=ORIENTED_EDGE('',*,*,#351,.T.);
#451=ORIENTED_EDGE('',*,*,#352,.T.);
#452=ORIENTED_EDGE('',*,*,#353,.T.);
#453=ORIENTED_EDGE('',*,*,#338,.T.);
#454=ORIENTED_EDGE('',*,*,#331,.T.);
#455=ORIENTED_EDGE('',*,*,#354,.F.);
#456=ORIENTED_EDGE('',*,*,#355,.F.);
#457=ORIENTED_EDGE('',*,*,#356,.T.);
#458=ORIENTED_EDGE('',*,*,#346,.F.);
#459=ORIENTED_EDGE('',*,*,#357,.T.);
#460=ORIENTED_EDGE('',*,*,#341,.F.);
#461=ORIENTED_EDGE('',*,*,#358,.F.);
#462=ORIENTED_EDGE('',*,*,#359,.F.);
#463=ORIENTED_EDGE('',*,*,#360,.F.);
#464=ORIENTED_EDGE('',*,*,#339,.T.);
#465=ORIENTED_EDGE('',*,*,#353,.F.);
#466=ORIENTED_EDGE('',*,*,#361,.F.);
#467=ORIENTED_EDGE('',*,*,#362,.F.);
#468=ORIENTED_EDGE('',*,*,#361,.T.);
#469=ORIENTED_EDGE('',*,*,#352,.F.);
#470=ORIENTED_EDGE('',*,*,#363,.F.);
#471=ORIENTED_EDGE('',*,*,#364,.F.);
#472=ORIENTED_EDGE('',*,*,#363,.T.);
#473=ORIENTED_EDGE('',*,*,#351,.F.);
#474=ORIENTED_EDGE('',*,*,#365,.F.);
#475=ORIENTED_EDGE('',*,*,#366,.T.);
#476=ORIENTED_EDGE('',*,*,#367,.F.);
#477=ORIENTED_EDGE('',*,*,#368,.F.);
#478=ORIENTED_EDGE('',*,*,#365,.T.);
#479=ORIENTED_EDGE('',*,*,#350,.F.);
#480=ORIENTED_EDGE('',*,*,#333,.T.);
#481=ORIENTED_EDGE('',*,*,#369,.T.);
#482=ORIENTED_EDGE('',*,*,#370,.F.);
#483=ORIENTED_EDGE('',*,*,#371,.F.);
#484=ORIENTED_EDGE('',*,*,#367,.T.);
#485=ORIENTED_EDGE('',*,*,#372,.F.);
#486=ORIENTED_EDGE('',*,*,#343,.T.);
#487=ORIENTED_EDGE('',*,*,#349,.F.);
#488=ORIENTED_EDGE('',*,*,#373,.F.);
#489=ORIENTED_EDGE('',*,*,#374,.F.);
#490=ORIENTED_EDGE('',*,*,#373,.T.);
#491=ORIENTED_EDGE('',*,*,#348,.F.);
#492=ORIENTED_EDGE('',*,*,#375,.F.);
#493=ORIENTED_EDGE('',*,*,#376,.F.);
#494=ORIENTED_EDGE('',*,*,#375,.T.);
#495=ORIENTED_EDGE('',*,*,#347,.F.);
#496=ORIENTED_EDGE('',*,*,#356,.F.);
#497=ORIENTED_EDGE('',*,*,#344,.T.);
#498=ORIENTED_EDGE('',*,*,#372,.T.);
#499=ORIENTED_EDGE('',*,*,#374,.T.);
#500=ORIENTED_EDGE('',*,*,#376,.T.);
#501=ORIENTED_EDGE('',*,*,#355,.T.);
#502=ORIENTED_EDGE('',*,*,#377,.T.);
#503=ORIENTED_EDGE('',*,*,#378,.T.);
#504=ORIENTED_EDGE('',*,*,#379,.F.);
#505=ORIENTED_EDGE('',*,*,#380,.F.);
#506=ORIENTED_EDGE('',*,*,#381,.F.);
#507=ORIENTED_EDGE('',*,*,#382,.F.);
#508=ORIENTED_EDGE('',*,*,#383,.F.);
#509=ORIENTED_EDGE('',*,*,#384,.F.);
#510=ORIENTED_EDGE('',*,*,#385,.F.);
#511=ORIENTED_EDGE('',*,*,#386,.T.);
#512=ORIENTED_EDGE('',*,*,#387,.T.);
#513=ORIENTED_EDGE('',*,*,#388,.F.);
#514=ORIENTED_EDGE('',*,*,#389,.T.);
#515=ORIENTED_EDGE('',*,*,#390,.F.);
#516=ORIENTED_EDGE('',*,*,#391,.F.);
#517=ORIENTED_EDGE('',*,*,#359,.T.);
#518=ORIENTED_EDGE('',*,*,#392,.F.);
#519=ORIENTED_EDGE('',*,*,#391,.T.);
#520=ORIENTED_EDGE('',*,*,#393,.F.);
#521=ORIENTED_EDGE('',*,*,#377,.F.);
#522=ORIENTED_EDGE('',*,*,#354,.T.);
#523=ORIENTED_EDGE('',*,*,#394,.F.);
#524=ORIENTED_EDGE('',*,*,#395,.F.);
#525=ORIENTED_EDGE('',*,*,#396,.T.);
#526=ORIENTED_EDGE('',*,*,#394,.T.);
#527=ORIENTED_EDGE('',*,*,#330,.T.);
#528=ORIENTED_EDGE('',*,*,#337,.F.);
#529=ORIENTED_EDGE('',*,*,#357,.F.);
#530=ORIENTED_EDGE('',*,*,#393,.T.);
#531=ORIENTED_EDGE('',*,*,#390,.T.);
#532=ORIENTED_EDGE('',*,*,#371,.T.);
#533=ORIENTED_EDGE('',*,*,#397,.T.);
#534=ORIENTED_EDGE('',*,*,#398,.T.);
#535=ORIENTED_EDGE('',*,*,#399,.T.);
#536=ORIENTED_EDGE('',*,*,#388,.T.);
#537=ORIENTED_EDGE('',*,*,#392,.T.);
#538=ORIENTED_EDGE('',*,*,#358,.T.);
#539=ORIENTED_EDGE('',*,*,#340,.T.);
#540=ORIENTED_EDGE('',*,*,#360,.T.);
#541=ORIENTED_EDGE('',*,*,#362,.T.);
#542=ORIENTED_EDGE('',*,*,#364,.T.);
#543=ORIENTED_EDGE('',*,*,#368,.T.);
#544=ORIENTED_EDGE('',*,*,#400,.T.);
#545=ORIENTED_EDGE('',*,*,#401,.T.);
#546=ORIENTED_EDGE('',*,*,#369,.F.);
#547=ORIENTED_EDGE('',*,*,#366,.F.);
#548=ORIENTED_EDGE('',*,*,#336,.F.);
#549=ORIENTED_EDGE('',*,*,#402,.T.);
#550=ORIENTED_EDGE('',*,*,#403,.T.);
#551=ORIENTED_EDGE('',*,*,#398,.F.);
#552=ORIENTED_EDGE('',*,*,#404,.T.);
#553=ORIENTED_EDGE('',*,*,#400,.F.);
#554=ORIENTED_EDGE('',*,*,#405,.F.);
#555=ORIENTED_EDGE('',*,*,#370,.T.);
#556=ORIENTED_EDGE('',*,*,#401,.F.);
#557=ORIENTED_EDGE('',*,*,#404,.F.);
#558=ORIENTED_EDGE('',*,*,#397,.F.);
#559=ORIENTED_EDGE('',*,*,#387,.F.);
#560=ORIENTED_EDGE('',*,*,#406,.T.);
#561=ORIENTED_EDGE('',*,*,#402,.F.);
#562=ORIENTED_EDGE('',*,*,#345,.F.);
#563=ORIENTED_EDGE('',*,*,#407,.T.);
#564=ORIENTED_EDGE('',*,*,#408,.T.);
#565=ORIENTED_EDGE('',*,*,#409,.T.);
#566=ORIENTED_EDGE('',*,*,#410,.T.);
#567=ORIENTED_EDGE('',*,*,#411,.T.);
#568=ORIENTED_EDGE('',*,*,#412,.T.);
#569=ORIENTED_EDGE('',*,*,#413,.T.);
#570=ORIENTED_EDGE('',*,*,#414,.T.);
#571=ORIENTED_EDGE('',*,*,#386,.F.);
#572=ORIENTED_EDGE('',*,*,#415,.T.);
#573=ORIENTED_EDGE('',*,*,#407,.F.);
#574=ORIENTED_EDGE('',*,*,#416,.F.);
#575=ORIENTED_EDGE('',*,*,#378,.F.);
#576=ORIENTED_EDGE('',*,*,#395,.T.);
#577=ORIENTED_EDGE('',*,*,#396,.F.);
#578=ORIENTED_EDGE('',*,*,#389,.F.);
#579=ORIENTED_EDGE('',*,*,#399,.F.);
#580=ORIENTED_EDGE('',*,*,#405,.T.);
#581=ORIENTED_EDGE('',*,*,#403,.F.);
#582=ORIENTED_EDGE('',*,*,#406,.F.);
#583=ORIENTED_EDGE('',*,*,#385,.T.);
#584=ORIENTED_EDGE('',*,*,#417,.T.);
#585=ORIENTED_EDGE('',*,*,#408,.F.);
#586=ORIENTED_EDGE('',*,*,#415,.F.);
#587=ORIENTED_EDGE('',*,*,#384,.T.);
#588=ORIENTED_EDGE('',*,*,#418,.T.);
#589=ORIENTED_EDGE('',*,*,#409,.F.);
#590=ORIENTED_EDGE('',*,*,#417,.F.);
#591=ORIENTED_EDGE('',*,*,#383,.T.);
#592=ORIENTED_EDGE('',*,*,#419,.T.);
#593=ORIENTED_EDGE('',*,*,#410,.F.);
#594=ORIENTED_EDGE('',*,*,#418,.F.);
#595=ORIENTED_EDGE('',*,*,#382,.T.);
#596=ORIENTED_EDGE('',*,*,#420,.T.);
#597=ORIENTED_EDGE('',*,*,#411,.F.);
#598=ORIENTED_EDGE('',*,*,#419,.F.);
#599=ORIENTED_EDGE('',*,*,#381,.T.);
#600=ORIENTED_EDGE('',*,*,#421,.T.);
#601=ORIENTED_EDGE('',*,*,#412,.F.);
#602=ORIENTED_EDGE('',*,*,#420,.F.);
#603=ORIENTED_EDGE('',*,*,#380,.T.);
#604=ORIENTED_EDGE('',*,*,#422,.T.);
#605=ORIENTED_EDGE('',*,*,#413,.F.);
#606=ORIENTED_EDGE('',*,*,#421,.F.);
#607=ORIENTED_EDGE('',*,*,#379,.T.);
#608=ORIENTED_EDGE('',*,*,#416,.T.);
#609=ORIENTED_EDGE('',*,*,#414,.F.);
#610=ORIENTED_EDGE('',*,*,#422,.F.);
#611=PLANE('',#689);
#612=PLANE('',#690);
#613=PLANE('',#691);
#614=PLANE('',#692);
#615=PLANE('',#693);
#616=PLANE('',#694);
#617=PLANE('',#695);
#618=PLANE('',#696);
#619=PLANE('',#697);
#620=PLANE('',#698);
#621=PLANE('',#699);
#622=PLANE('',#700);
#623=PLANE('',#701);
#624=PLANE('',#702);
#625=PLANE('',#703);
#626=PLANE('',#704);
#627=PLANE('',#709);
#628=PLANE('',#710);
#629=PLANE('',#711);
#630=PLANE('',#712);
#631=PLANE('',#713);
#632=PLANE('',#714);
#633=PLANE('',#715);
#634=PLANE('',#716);
#635=PLANE('',#717);
#636=PLANE('',#718);
#637=PLANE('',#723);
#638=PLANE('',#725);
#639=PLANE('',#727);
#640=PLANE('',#729);
#641=ADVANCED_FACE('',(#27),#611,.F.);
#642=ADVANCED_FACE('',(#28),#612,.F.);
#643=ADVANCED_FACE('',(#29),#613,.T.);
#644=ADVANCED_FACE('',(#30),#614,.T.);
#645=ADVANCED_FACE('',(#31),#615,.T.);
#646=ADVANCED_FACE('',(#32),#616,.T.);
#647=ADVANCED_FACE('',(#33),#617,.T.);
#648=ADVANCED_FACE('',(#34),#618,.T.);
#649=ADVANCED_FACE('',(#35),#619,.T.);
#650=ADVANCED_FACE('',(#36),#620,.T.);
#651=ADVANCED_FACE('',(#37),#621,.T.);
#652=ADVANCED_FACE('',(#38),#622,.T.);
#653=ADVANCED_FACE('',(#39),#623,.T.);
#654=ADVANCED_FACE('',(#40),#624,.T.);
#655=ADVANCED_FACE('',(#41),#625,.T.);
#656=ADVANCED_FACE('',(#42),#626,.F.);
#657=ADVANCED_FACE('',(#43),#627,.T.);
#658=ADVANCED_FACE('',(#44),#628,.T.);
#659=ADVANCED_FACE('',(#45),#629,.T.);
#660=ADVANCED_FACE('',(#46),#630,.T.);
#661=ADVANCED_FACE('',(#47),#631,.F.);
#662=ADVANCED_FACE('',(#48),#632,.T.);
#663=ADVANCED_FACE('',(#49),#633,.T.);
#664=ADVANCED_FACE('',(#50),#634,.T.);
#665=ADVANCED_FACE('',(#51),#635,.T.);
#666=ADVANCED_FACE('',(#52),#636,.T.);
#667=ADVANCED_FACE('',(#53),#637,.T.);
#668=ADVANCED_FACE('',(#54),#15,.T.);
#669=ADVANCED_FACE('',(#55),#638,.T.);
#670=ADVANCED_FACE('',(#56),#16,.T.);
#671=ADVANCED_FACE('',(#57),#639,.T.);
#672=ADVANCED_FACE('',(#58),#17,.T.);
#673=ADVANCED_FACE('',(#59),#640,.T.);
#674=ADVANCED_FACE('',(#60),#18,.T.);
#675=CLOSED_SHELL('',(#641,#642,#643,#644,#645,#646,#647,#648,#649,#650,
#651,#652,#653,#654,#655,#656,#657,#658,#659,#660,#661,#662,#663,#664,#665,
#666,#667,#668,#669,#670,#671,#672,#673,#674));
#676=DERIVED_UNIT_ELEMENT(#678,1.);
#677=DERIVED_UNIT_ELEMENT(#1099,-3.);
#678=(
MASS_UNIT()
NAMED_UNIT(*)
SI_UNIT(.KILO.,.GRAM.)
);
#679=DERIVED_UNIT((#676,#677));
#680=MEASURE_REPRESENTATION_ITEM('density measure',
POSITIVE_RATIO_MEASURE(7850.),#679);
#681=PROPERTY_DEFINITION_REPRESENTATION(#686,#683);
#682=PROPERTY_DEFINITION_REPRESENTATION(#687,#684);
#683=REPRESENTATION('material name',(#685),#1096);
#684=REPRESENTATION('density',(#680),#1096);
#685=DESCRIPTIVE_REPRESENTATION_ITEM('Steel','Steel');
#686=PROPERTY_DEFINITION('material property','material name',#1106);
#687=PROPERTY_DEFINITION('material property','density of part',#1106);
#688=AXIS2_PLACEMENT_3D('',#903,#731,#732);
#689=AXIS2_PLACEMENT_3D('',#904,#733,#734);
#690=AXIS2_PLACEMENT_3D('',#913,#739,#740);
#691=AXIS2_PLACEMENT_3D('',#922,#745,#746);
#692=AXIS2_PLACEMENT_3D('',#932,#752,#753);
#693=AXIS2_PLACEMENT_3D('',#940,#758,#759);
#694=AXIS2_PLACEMENT_3D('',#955,#768,#769);
#695=AXIS2_PLACEMENT_3D('',#961,#773,#774);
#696=AXIS2_PLACEMENT_3D('',#967,#778,#779);
#697=AXIS2_PLACEMENT_3D('',#971,#782,#783);
#698=AXIS2_PLACEMENT_3D('',#975,#786,#787);
#699=AXIS2_PLACEMENT_3D('',#979,#790,#791);
#700=AXIS2_PLACEMENT_3D('',#985,#795,#796);
#701=AXIS2_PLACEMENT_3D('',#991,#800,#801);
#702=AXIS2_PLACEMENT_3D('',#995,#804,#805);
#703=AXIS2_PLACEMENT_3D('',#999,#808,#809);
#704=AXIS2_PLACEMENT_3D('',#1001,#811,#812);
#705=AXIS2_PLACEMENT_3D('',#1007,#815,#816);
#706=AXIS2_PLACEMENT_3D('',#1011,#818,#819);
#707=AXIS2_PLACEMENT_3D('',#1015,#821,#822);
#708=AXIS2_PLACEMENT_3D('',#1019,#824,#825);
#709=AXIS2_PLACEMENT_3D('',#1023,#828,#829);
#710=AXIS2_PLACEMENT_3D('',#1032,#834,#835);
#711=AXIS2_PLACEMENT_3D('',#1035,#838,#839);
#712=AXIS2_PLACEMENT_3D('',#1039,#842,#843);
#713=AXIS2_PLACEMENT_3D('',#1041,#845,#846);
#714=AXIS2_PLACEMENT_3D('',#1047,#850,#851);
#715=AXIS2_PLACEMENT_3D('',#1055,#856,#857);
#716=AXIS2_PLACEMENT_3D('',#1058,#860,#861);
#717=AXIS2_PLACEMENT_3D('',#1059,#862,#863);
#718=AXIS2_PLACEMENT_3D('',#1061,#865,#866);
#719=AXIS2_PLACEMENT_3D('',#1066,#868,#869);
#720=AXIS2_PLACEMENT_3D('',#1070,#871,#872);
#721=AXIS2_PLACEMENT_3D('',#1074,#874,#875);
#722=AXIS2_PLACEMENT_3D('',#1077,#877,#878);
#723=AXIS2_PLACEMENT_3D('',#1078,#879,#880);
#724=AXIS2_PLACEMENT_3D('',#1081,#883,#884);
#725=AXIS2_PLACEMENT_3D('',#1083,#886,#887);
#726=AXIS2_PLACEMENT_3D('',#1085,#889,#890);
#727=AXIS2_PLACEMENT_3D('',#1087,#892,#893);
#728=AXIS2_PLACEMENT_3D('',#1089,#895,#896);
#729=AXIS2_PLACEMENT_3D('',#1091,#898,#899);
#730=AXIS2_PLACEMENT_3D('',#1093,#901,#902);
#731=DIRECTION('axis',(0.,0.,1.));
#732=DIRECTION('refdir',(1.,0.,0.));
#733=DIRECTION('center_axis',(0.,-1.,0.));
#734=DIRECTION('ref_axis',(0.,0.,1.));
#735=DIRECTION('',(0.,0.,-1.));
#736=DIRECTION('',(-1.,0.,0.));
#737=DIRECTION('',(0.,0.,-1.));
#738=DIRECTION('',(1.,0.,0.));
#739=DIRECTION('center_axis',(0.,1.,0.));
#740=DIRECTION('ref_axis',(0.,0.,-1.));
#741=DIRECTION('',(0.,0.,1.));
#742=DIRECTION('',(-1.,0.,0.));
#743=DIRECTION('',(0.,0.,1.));
#744=DIRECTION('',(-1.,0.,0.));
#745=DIRECTION('center_axis',(-1.,0.,0.));
#746=DIRECTION('ref_axis',(0.,1.,0.));
#747=DIRECTION('',(0.,-1.,0.));
#748=DIRECTION('',(0.,1.,0.));
#749=DIRECTION('',(0.,0.,-1.));
#750=DIRECTION('',(0.,-1.,0.));
#751=DIRECTION('',(0.,0.,-1.));
#752=DIRECTION('center_axis',(1.,0.,0.));
#753=DIRECTION('ref_axis',(0.,-1.,0.));
#754=DIRECTION('',(0.,1.,0.));
#755=DIRECTION('',(0.,0.,1.));
#756=DIRECTION('',(0.,-1.,0.));
#757=DIRECTION('',(0.,0.,1.));
#758=DIRECTION('center_axis',(0.,0.,-1.));
#759=DIRECTION('ref_axis',(-1.,0.,0.));
#760=DIRECTION('',(0.,1.,0.));
#761=DIRECTION('',(1.,4.95859219770512E-18,0.));
#762=DIRECTION('',(0.,-1.,0.));
#763=DIRECTION('',(-1.,0.,0.));
#764=DIRECTION('',(0.,1.,0.));
#765=DIRECTION('',(-1.,0.,0.));
#766=DIRECTION('',(5.95301062749539E-17,-1.,0.));
#767=DIRECTION('',(1.,1.6020623910654E-17,0.));
#768=DIRECTION('center_axis',(1.,0.,0.));
#769=DIRECTION('ref_axis',(0.,-1.,0.));
#770=DIRECTION('',(0.,0.,-1.));
#771=DIRECTION('',(0.,-1.,0.));
#772=DIRECTION('',(0.,0.,1.));
#773=DIRECTION('center_axis',(-1.85037170770859E-16,1.,0.));
#774=DIRECTION('ref_axis',(1.,1.85037170770859E-16,0.));
#775=DIRECTION('',(-1.,-1.85037170770859E-16,0.));
#776=DIRECTION('',(-1.,-1.85037170770859E-16,0.));
#777=DIRECTION('',(0.,0.,1.));
#778=DIRECTION('center_axis',(-1.6020623910654E-17,1.,0.));
#779=DIRECTION('ref_axis',(1.,1.6020623910654E-17,0.));
#780=DIRECTION('',(-1.,-1.6020623910654E-17,0.));
#781=DIRECTION('',(0.,0.,-1.));
#782=DIRECTION('center_axis',(1.,5.95301062749539E-17,0.));
#783=DIRECTION('ref_axis',(5.95301062749539E-17,-1.,0.));
#784=DIRECTION('',(-5.95301062749539E-17,1.,0.));
#785=DIRECTION('',(0.,0.,-1.));
#786=DIRECTION('center_axis',(0.,-1.,0.));
#787=DIRECTION('ref_axis',(-1.,0.,0.));
#788=DIRECTION('',(1.,0.,0.));
#789=DIRECTION('',(0.,0.,-1.));
#790=DIRECTION('center_axis',(-1.,0.,0.));
#791=DIRECTION('ref_axis',(0.,1.,0.));
#792=DIRECTION('',(0.,-1.,0.));
#793=DIRECTION('',(0.,0.,-1.));
#794=DIRECTION('',(0.,-1.,0.));
#795=DIRECTION('center_axis',(0.,-1.,0.));
#796=DIRECTION('ref_axis',(-1.,0.,0.));
#797=DIRECTION('',(1.,0.,0.));
#798=DIRECTION('',(0.,0.,-1.));
#799=DIRECTION('',(1.,0.,0.));
#800=DIRECTION('center_axis',(0.,1.,0.));
#801=DIRECTION('ref_axis',(1.,0.,0.));
#802=DIRECTION('',(1.,0.,0.));
#803=DIRECTION('',(0.,0.,1.));
#804=DIRECTION('center_axis',(-1.,0.,0.));
#805=DIRECTION('ref_axis',(0.,1.,0.));
#806=DIRECTION('',(0.,1.,0.));
#807=DIRECTION('',(0.,0.,-1.));
#808=DIRECTION('center_axis',(4.95859219770512E-18,-1.,0.));
#809=DIRECTION('ref_axis',(-1.,-4.95859219770512E-18,0.));
#810=DIRECTION('',(-1.,-4.95859219770512E-18,0.));
#811=DIRECTION('center_axis',(0.,0.,1.));
#812=DIRECTION('ref_axis',(-1.,0.,0.));
#813=DIRECTION('',(1.,0.,0.));
#814=DIRECTION('',(0.,-1.,0.));
#815=DIRECTION('center_axis',(0.,0.,1.));
#816=DIRECTION('ref_axis',(0.,-1.,0.));
#817=DIRECTION('',(1.,-1.91501266764578E-17,0.));
#818=DIRECTION('center_axis',(0.,0.,1.));
#819=DIRECTION('ref_axis',(-1.,-2.4980018054066E-15,0.));
#820=DIRECTION('',(8.16949304945479E-18,-1.,0.));
#821=DIRECTION('center_axis',(0.,0.,1.));
#822=DIRECTION('ref_axis',(4.71844785465691E-15,1.,0.));
#823=DIRECTION('',(-1.,7.66005067058314E-17,0.));
#824=DIRECTION('center_axis',(0.,0.,1.));
#825=DIRECTION('ref_axis',(1.,0.,0.));
#826=DIRECTION('',(0.,-1.,0.));
#827=DIRECTION('',(-1.,0.,0.));
#828=DIRECTION('center_axis',(0.,1.,0.));
#829=DIRECTION('ref_axis',(1.,0.,0.));
#830=DIRECTION('',(-1.,0.,0.));
#831=DIRECTION('',(0.,0.,-1.));
#832=DIRECTION('',(1.,0.,0.));
#833=DIRECTION('',(0.,0.,-1.));
#834=DIRECTION('center_axis',(-1.,0.,0.));
#835=DIRECTION('ref_axis',(0.,1.,0.));
#836=DIRECTION('',(0.,-1.,0.));
#837=DIRECTION('',(0.,1.,0.));
#838=DIRECTION('center_axis',(0.,-1.,0.));
#839=DIRECTION('ref_axis',(-1.,0.,0.));
#840=DIRECTION('',(-1.,0.,0.));
#841=DIRECTION('',(0.,0.,-1.));
#842=DIRECTION('center_axis',(0.,0.,-1.));
#843=DIRECTION('ref_axis',(-1.110223024625E-16,-1.,0.));
#844=DIRECTION('',(0.,-1.,0.));
#845=DIRECTION('center_axis',(0.,0.,1.));
#846=DIRECTION('ref_axis',(-1.,0.,0.));
#847=DIRECTION('',(0.,-1.,0.));
#848=DIRECTION('',(1.,0.,0.));
#849=DIRECTION('',(0.,-1.,0.));
#850=DIRECTION('center_axis',(0.,0.,-1.));
#851=DIRECTION('ref_axis',(-1.110223024625E-16,-1.,0.));
#852=DIRECTION('',(-1.,0.,0.));
#853=DIRECTION('',(0.,1.,0.));
#854=DIRECTION('',(1.,0.,0.));
#855=DIRECTION('',(0.,-1.,0.));
#856=DIRECTION('center_axis',(0.,-1.,0.));
#857=DIRECTION('ref_axis',(-1.,0.,0.));
#858=DIRECTION('',(0.,0.,-1.));
#859=DIRECTION('',(0.,0.,-1.));
#860=DIRECTION('center_axis',(-1.,0.,0.));
#861=DIRECTION('ref_axis',(0.,1.,0.));
#862=DIRECTION('center_axis',(0.,1.,0.));
#863=DIRECTION('ref_axis',(1.,0.,0.));
#864=DIRECTION('',(0.,0.,-1.));
#865=DIRECTION('center_axis',(0.,0.,1.));
#866=DIRECTION('ref_axis',(-1.,0.,0.));
#867=DIRECTION('',(0.,1.,0.));
#868=DIRECTION('center_axis',(0.,0.,1.));
#869=DIRECTION('ref_axis',(1.,0.,0.));
#870=DIRECTION('',(-1.,7.66005067058314E-17,0.));
#871=DIRECTION('center_axis',(0.,0.,1.));
#872=DIRECTION('ref_axis',(4.71844785465691E-15,1.,0.));
#873=DIRECTION('',(8.16949304945479E-18,-1.,0.));
#874=DIRECTION('center_axis',(0.,0.,1.));
#875=DIRECTION('ref_axis',(-1.,-2.4980018054066E-15,0.));
#876=DIRECTION('',(1.,-1.91501266764578E-17,0.));
#877=DIRECTION('center_axis',(0.,0.,1.));
#878=DIRECTION('ref_axis',(0.,-1.,0.));
#879=DIRECTION('center_axis',(1.,0.,0.));
#880=DIRECTION('ref_axis',(0.,1.,0.));
#881=DIRECTION('',(0.,0.,1.));
#882=DIRECTION('',(0.,0.,1.));
#883=DIRECTION('center_axis',(0.,0.,1.));
#884=DIRECTION('ref_axis',(1.,0.,0.));
#885=DIRECTION('',(0.,0.,1.));
#886=DIRECTION('center_axis',(7.66005067058314E-17,1.,0.));
#887=DIRECTION('ref_axis',(-1.,7.66005067058314E-17,0.));
#888=DIRECTION('',(0.,0.,1.));
#889=DIRECTION('center_axis',(0.,0.,1.));
#890=DIRECTION('ref_axis',(4.71844785465691E-15,1.,0.));
#891=DIRECTION('',(0.,0.,1.));
#892=DIRECTION('center_axis',(-1.,-8.16949304945479E-18,0.));
#893=DIRECTION('ref_axis',(8.16949304945479E-18,-1.,0.));
#894=DIRECTION('',(0.,0.,1.));
#895=DIRECTION('center_axis',(0.,0.,1.));
#896=DIRECTION('ref_axis',(-1.,-2.4980018054066E-15,0.));
#897=DIRECTION('',(0.,0.,1.));
#898=DIRECTION('center_axis',(-1.91501266764578E-17,-1.,0.));
#899=DIRECTION('ref_axis',(1.,-1.91501266764578E-17,0.));
#900=DIRECTION('',(0.,0.,1.));
#901=DIRECTION('center_axis',(0.,0.,1.));
#902=DIRECTION('ref_axis',(0.,-1.,0.));
#903=CARTESIAN_POINT('',(0.,0.,0.));
#904=CARTESIAN_POINT('Origin',(55.487409194818,7.772027045637,10.350050561152));
#905=CARTESIAN_POINT('',(53.487409194818,7.772027045637,12.550050561152));
#906=CARTESIAN_POINT('',(53.487409194818,7.772027045637,10.350050561152));
#907=CARTESIAN_POINT('',(53.487409194818,7.772027045637,11.850050561152));
#908=CARTESIAN_POINT('',(55.337409194818,7.772027045637,12.550050561152));
#909=CARTESIAN_POINT('',(55.487409194818,7.772027045637,12.550050561152));
#910=CARTESIAN_POINT('',(55.337409194818,7.772027045637,10.350050561152));
#911=CARTESIAN_POINT('',(55.337409194818,7.772027045637,11.850050561152));
#912=CARTESIAN_POINT('',(41.4937319024635,7.772027045637,10.350050561152));
#913=CARTESIAN_POINT('Origin',(55.487409194818,22.072026802471,12.550050561152));
#914=CARTESIAN_POINT('',(53.487409194818,22.072026802471,10.350050561152));
#915=CARTESIAN_POINT('',(53.487409194818,22.072026802471,12.550050561152));
#916=CARTESIAN_POINT('',(53.487409194818,22.072026802471,12.950050561152));
#917=CARTESIAN_POINT('',(55.337409194818,22.072026802471,10.350050561152));
#918=CARTESIAN_POINT('',(41.4937319024635,22.072026802471,10.350050561152));
#919=CARTESIAN_POINT('',(55.337409194818,22.072026802471,12.550050561152));
#920=CARTESIAN_POINT('',(55.337409194818,22.072026802471,12.950050561152));
#921=CARTESIAN_POINT('',(55.487409194818,22.072026802471,12.550050561152));
#922=CARTESIAN_POINT('Origin',(53.487409194818,1.01270002540005,13.350050561152));
#923=CARTESIAN_POINT('',(53.487409194818,9.772027045637,12.550050561152));
#924=CARTESIAN_POINT('',(53.487409194818,4.39236353551853,12.550050561152));
#925=CARTESIAN_POINT('',(53.487409194818,1.01270002540005,10.350050561152));
#926=CARTESIAN_POINT('',(53.487409194818,9.772027045637,10.350050561152));
#927=CARTESIAN_POINT('',(53.487409194818,1.01270002540005,13.350050561152));
#928=CARTESIAN_POINT('',(53.487409194818,1.01270002540005,13.350050561152));
#929=CARTESIAN_POINT('',(53.487409194818,9.772027045637,13.350050561152));
#930=CARTESIAN_POINT('',(53.487409194818,8.00636525273054,13.350050561152));
#931=CARTESIAN_POINT('',(53.487409194818,9.772027045637,13.350050561152));
#932=CARTESIAN_POINT('Origin',(55.337409194818,30.987360934722,13.350050561152));
#933=CARTESIAN_POINT('',(55.337409194818,30.837360934722,10.350050561152));
#934=CARTESIAN_POINT('',(55.337409194818,22.9936957073915,10.350050561152));
#935=CARTESIAN_POINT('',(55.337409194818,30.837360934722,13.350050561152));
#936=CARTESIAN_POINT('',(55.337409194818,30.837360934722,13.350050561152));
#937=CARTESIAN_POINT('',(55.337409194818,22.072026802471,13.350050561152));
#938=CARTESIAN_POINT('',(55.337409194818,22.9936957073915,13.350050561152));
#939=CARTESIAN_POINT('',(55.337409194818,22.072026802471,13.350050561152));
#940=CARTESIAN_POINT('Origin',(27.500054610109,15.000030480061,10.350050561152));
#941=CARTESIAN_POINT('',(55.337409194818,-0.83729997459995,10.350050561152));
#942=CARTESIAN_POINT('',(55.337409194818,12.386028762849,10.350050561152));
#943=CARTESIAN_POINT('',(-0.337299974599998,-0.83729997459995,10.350050561152));
#944=CARTESIAN_POINT('',(41.4937319024635,-0.83729997459995,10.350050561152));
#945=CARTESIAN_POINT('',(-0.337299974599997,30.837360934722,10.350050561152));
#946=CARTESIAN_POINT('',(-0.337299974599996,7.00636525273054,10.350050561152));
#947=CARTESIAN_POINT('',(13.5063773177545,30.837360934722,10.350050561152));
#948=CARTESIAN_POINT('',(53.487409194818,28.987360934722,10.350050561152));
#949=CARTESIAN_POINT('',(53.487409194818,28.987360934722,10.350050561152));
#950=CARTESIAN_POINT('',(1.5127000254,28.987360934722,10.350050561152));
#951=CARTESIAN_POINT('',(1.5127000254,28.987360934722,10.350050561152));
#952=CARTESIAN_POINT('',(1.5127000254,1.01270002540005,10.350050561152));
#953=CARTESIAN_POINT('',(1.5127000254,1.01270002540005,10.350050561152));
#954=CARTESIAN_POINT('',(53.487409194818,1.01270002540005,10.350050561152));
#955=CARTESIAN_POINT('Origin',(55.337409194818,9.772027045637,13.350050561152));
#956=CARTESIAN_POINT('',(55.337409194818,7.772027045637,13.350050561152));
#957=CARTESIAN_POINT('',(55.337409194818,7.772027045637,13.350050561152));
#958=CARTESIAN_POINT('',(55.337409194818,-0.83729997459995,13.350050561152));
#959=CARTESIAN_POINT('',(55.337409194818,12.386028762849,13.350050561152));
#960=CARTESIAN_POINT('',(55.337409194818,-0.83729997459995,13.350050561152));
#961=CARTESIAN_POINT('Origin',(53.487409194818,9.772027045637,13.350050561152));
#962=CARTESIAN_POINT('',(55.487409194818,9.772027045637,12.550050561152));
#963=CARTESIAN_POINT('',(54.487409194818,9.772027045637,12.550050561152));
#964=CARTESIAN_POINT('',(55.487409194818,9.772027045637,13.350050561152));
#965=CARTESIAN_POINT('',(40.4937319024635,9.772027045637,13.350050561152));
#966=CARTESIAN_POINT('',(55.487409194818,9.772027045637,13.350050561152));
#967=CARTESIAN_POINT('Origin',(1.5127000254,1.01270002540005,13.350050561152));
#968=CARTESIAN_POINT('',(1.5127000254,1.01270002540005,13.350050561152));
#969=CARTESIAN_POINT('',(14.5063773177545,1.01270002540005,13.350050561152));
#970=CARTESIAN_POINT('',(1.5127000254,1.01270002540005,13.350050561152));
#971=CARTESIAN_POINT('Origin',(1.5127000254,28.987360934722,13.350050561152));
#972=CARTESIAN_POINT('',(1.5127000254,28.987360934722,13.350050561152));
#973=CARTESIAN_POINT('',(1.5127000254,21.9936957073915,13.350050561152));
#974=CARTESIAN_POINT('',(1.5127000254,28.987360934722,13.350050561152));
#975=CARTESIAN_POINT('Origin',(53.487409194818,28.987360934722,13.350050561152));
#976=CARTESIAN_POINT('',(53.487409194818,28.987360934722,13.350050561152));
#977=CARTESIAN_POINT('',(40.4937319024635,28.987360934722,13.350050561152));
#978=CARTESIAN_POINT('',(53.487409194818,28.987360934722,13.350050561152));
#979=CARTESIAN_POINT('Origin',(53.487409194818,20.072026802471,13.350050561152));
#980=CARTESIAN_POINT('',(53.487409194818,20.072026802471,12.550050561152));
#981=CARTESIAN_POINT('',(53.487409194818,20.072026802471,12.550050561152));
#982=CARTESIAN_POINT('',(53.487409194818,20.072026802471,13.350050561152));
#983=CARTESIAN_POINT('',(53.487409194818,20.072026802471,13.350050561152));
#984=CARTESIAN_POINT('',(53.487409194818,17.536028641266,13.350050561152));
#985=CARTESIAN_POINT('Origin',(55.487409194818,20.072026802471,13.350050561152));
#986=CARTESIAN_POINT('',(55.487409194818,20.072026802471,12.550050561152));
#987=CARTESIAN_POINT('',(55.487409194818,20.072026802471,12.550050561152));
#988=CARTESIAN_POINT('',(55.487409194818,20.072026802471,13.350050561152));
#989=CARTESIAN_POINT('',(55.487409194818,20.072026802471,13.350050561152));
#990=CARTESIAN_POINT('',(41.4937319024635,20.072026802471,13.350050561152));
#991=CARTESIAN_POINT('Origin',(-0.487299974599997,30.837360934722,13.350050561152));
#992=CARTESIAN_POINT('',(-0.337299974599997,30.837360934722,13.350050561152));
#993=CARTESIAN_POINT('',(13.5063773177545,30.837360934722,13.350050561152));
#994=CARTESIAN_POINT('',(-0.337299974599997,30.837360934722,13.350050561152));
#995=CARTESIAN_POINT('Origin',(-0.337299974599997,-0.98729997459995,13.350050561152));
#996=CARTESIAN_POINT('',(-0.337299974599998,-0.83729997459995,13.350050561152));
#997=CARTESIAN_POINT('',(-0.337299974599996,7.00636525273054,13.350050561152));
#998=CARTESIAN_POINT('',(-0.337299974599996,-0.83729997459995,13.350050561152));
#999=CARTESIAN_POINT('Origin',(55.487409194818,-0.83729997459995,13.350050561152));
#1000=CARTESIAN_POINT('',(41.4937319024635,-0.83729997459995,13.350050561152));
#1001=CARTESIAN_POINT('Origin',(27.500054610109,15.000030480061,13.350050561152));
#1002=CARTESIAN_POINT('',(57.487409194818,7.772027045637,13.350050561152));
#1003=CARTESIAN_POINT('',(42.4937319024635,7.772027045637,13.350050561152));
#1004=CARTESIAN_POINT('',(57.487409194818,-1.98729997459995,13.350050561152));
#1005=CARTESIAN_POINT('',(57.487409194818,6.50636525273054,13.350050561152));
#1006=CARTESIAN_POINT('',(56.487409194818,-2.98729997459995,13.350050561152));
#1007=CARTESIAN_POINT('Origin',(56.487409194818,-1.98729997459995,13.350050561152));
#1008=CARTESIAN_POINT('',(-1.4872999746,-2.98729997459995,13.350050561152));
#1009=CARTESIAN_POINT('',(-1.4872999746,-2.98729997459995,13.350050561152));
#1010=CARTESIAN_POINT('',(-2.4872999746,-1.98729997459995,13.350050561152));
#1011=CARTESIAN_POINT('Origin',(-1.4872999746,-1.98729997459995,13.350050561152));
#1012=CARTESIAN_POINT('',(-2.4872999746,31.987360934722,13.350050561152));
#1013=CARTESIAN_POINT('',(-2.4872999746,31.987360934722,13.350050561152));
#1014=CARTESIAN_POINT('',(-1.48729997459999,32.987360934722,13.350050561152));
#1015=CARTESIAN_POINT('Origin',(-1.4872999746,31.987360934722,13.350050561152));
#1016=CARTESIAN_POINT('',(56.487409194818,32.987360934722,13.350050561152));
#1017=CARTESIAN_POINT('',(56.487409194818,32.987360934722,13.350050561152));
#1018=CARTESIAN_POINT('',(57.487409194818,31.987360934722,13.350050561152));
#1019=CARTESIAN_POINT('Origin',(56.487409194818,31.987360934722,13.350050561152));
#1020=CARTESIAN_POINT('',(57.487409194818,22.072026802471,13.350050561152));
#1021=CARTESIAN_POINT('',(57.487409194818,6.50636525273054,13.350050561152));
#1022=CARTESIAN_POINT('',(41.4937319024635,22.072026802471,13.350050561152));
#1023=CARTESIAN_POINT('Origin',(55.487409194818,12.822026959764,13.350050561152));
#1024=CARTESIAN_POINT('',(57.487409194818,12.822026959764,13.350050561152));
#1025=CARTESIAN_POINT('',(55.487409194818,12.822026959764,13.350050561152));
#1026=CARTESIAN_POINT('',(41.4937319024635,12.822026959764,13.350050561152));
#1027=CARTESIAN_POINT('',(57.487409194818,12.822026959764,12.550050561152));
#1028=CARTESIAN_POINT('',(57.487409194818,12.822026959764,13.350050561152));
#1029=CARTESIAN_POINT('',(55.487409194818,12.822026959764,12.550050561152));
#1030=CARTESIAN_POINT('',(57.487409194818,12.822026959764,12.550050561152));
#1031=CARTESIAN_POINT('',(55.487409194818,12.822026959764,13.350050561152));
#1032=CARTESIAN_POINT('Origin',(55.487409194818,7.772027045637,13.350050561152));
#1033=CARTESIAN_POINT('',(55.487409194818,11.386028762849,13.350050561152));
#1034=CARTESIAN_POINT('',(55.487409194818,12.822026959764,12.550050561152));
#1035=CARTESIAN_POINT('Origin',(57.487409194818,7.772027045637,13.350050561152));
#1036=CARTESIAN_POINT('',(57.487409194818,7.772027045637,12.550050561152));
#1037=CARTESIAN_POINT('',(57.487409194818,7.772027045637,12.550050561152));
#1038=CARTESIAN_POINT('',(57.487409194818,7.772027045637,13.350050561152));
#1039=CARTESIAN_POINT('Origin',(56.487409194818,10.2970270027005,12.550050561152));
#1040=CARTESIAN_POINT('',(57.487409194818,7.772027045637,12.550050561152));
#1041=CARTESIAN_POINT('Origin',(27.500054610109,15.000030480061,13.350050561152));
#1042=CARTESIAN_POINT('',(55.487409194818,17.022026888344,13.350050561152));
#1043=CARTESIAN_POINT('',(55.487409194818,16.0110286842025,13.350050561152));
#1044=CARTESIAN_POINT('',(57.487409194818,17.022026888344,13.350050561152));
#1045=CARTESIAN_POINT('',(42.4937319024635,17.022026888344,13.350050561152));
#1046=CARTESIAN_POINT('',(57.487409194818,6.50636525273054,13.350050561152));
#1047=CARTESIAN_POINT('Origin',(56.487409194818,19.5470268454075,12.550050561152));
#1048=CARTESIAN_POINT('',(57.487409194818,17.022026888344,12.550050561152));
#1049=CARTESIAN_POINT('',(55.487409194818,17.022026888344,12.550050561152));
#1050=CARTESIAN_POINT('',(57.487409194818,17.022026888344,12.550050561152));
#1051=CARTESIAN_POINT('',(55.487409194818,17.022026888344,12.550050561152));
#1052=CARTESIAN_POINT('',(57.487409194818,22.072026802471,12.550050561152));
#1053=CARTESIAN_POINT('',(55.487409194818,22.072026802471,12.550050561152));
#1054=CARTESIAN_POINT('',(57.487409194818,22.072026802471,12.550050561152));
#1055=CARTESIAN_POINT('Origin',(57.487409194818,17.022026888344,13.350050561152));
#1056=CARTESIAN_POINT('',(55.487409194818,17.022026888344,13.350050561152));
#1057=CARTESIAN_POINT('',(57.487409194818,17.022026888344,13.350050561152));
#1058=CARTESIAN_POINT('Origin',(55.487409194818,17.022026888344,13.350050561152));
#1059=CARTESIAN_POINT('Origin',(55.487409194818,22.072026802471,13.350050561152));
#1060=CARTESIAN_POINT('',(57.487409194818,22.072026802471,13.350050561152));
#1061=CARTESIAN_POINT('Origin',(27.500054610109,15.000030480061,14.950050561152));
#1062=CARTESIAN_POINT('',(57.487409194818,-1.98729997459995,14.950050561152));
#1063=CARTESIAN_POINT('',(57.487409194818,31.987360934722,14.950050561152));
#1064=CARTESIAN_POINT('',(57.487409194818,7.772027045637,14.950050561152));
#1065=CARTESIAN_POINT('',(56.487409194818,32.987360934722,14.950050561152));
#1066=CARTESIAN_POINT('Origin',(56.487409194818,31.987360934722,14.950050561152));
#1067=CARTESIAN_POINT('',(-1.48729997459999,32.987360934722,14.950050561152));
#1068=CARTESIAN_POINT('',(56.487409194818,32.987360934722,14.950050561152));
#1069=CARTESIAN_POINT('',(-2.4872999746,31.987360934722,14.950050561152));
#1070=CARTESIAN_POINT('Origin',(-1.4872999746,31.987360934722,14.950050561152));
#1071=CARTESIAN_POINT('',(-2.4872999746,-1.98729997459995,14.950050561152));
#1072=CARTESIAN_POINT('',(-2.4872999746,31.987360934722,14.950050561152));
#1073=CARTESIAN_POINT('',(-1.4872999746,-2.98729997459995,14.950050561152));
#1074=CARTESIAN_POINT('Origin',(-1.4872999746,-1.98729997459995,14.950050561152));
#1075=CARTESIAN_POINT('',(56.487409194818,-2.98729997459995,14.950050561152));
#1076=CARTESIAN_POINT('',(-1.4872999746,-2.98729997459995,14.950050561152));
#1077=CARTESIAN_POINT('Origin',(56.487409194818,-1.98729997459995,14.950050561152));
#1078=CARTESIAN_POINT('Origin',(57.487409194818,-1.98729997459995,13.350050561152));
#1079=CARTESIAN_POINT('',(57.487409194818,31.987360934722,13.350050561152));
#1080=CARTESIAN_POINT('',(57.487409194818,-1.98729997459995,13.350050561152));
#1081=CARTESIAN_POINT('Origin',(56.487409194818,31.987360934722,13.350050561152));
#1082=CARTESIAN_POINT('',(56.487409194818,32.987360934722,13.350050561152));
#1083=CARTESIAN_POINT('Origin',(56.487409194818,32.987360934722,13.350050561152));
#1084=CARTESIAN_POINT('',(-1.48729997459999,32.987360934722,13.350050561152));
#1085=CARTESIAN_POINT('Origin',(-1.4872999746,31.987360934722,13.350050561152));
#1086=CARTESIAN_POINT('',(-2.4872999746,31.987360934722,13.350050561152));
#1087=CARTESIAN_POINT('Origin',(-2.4872999746,31.987360934722,13.350050561152));
#1088=CARTESIAN_POINT('',(-2.4872999746,-1.98729997459995,13.350050561152));
#1089=CARTESIAN_POINT('Origin',(-1.4872999746,-1.98729997459995,13.350050561152));
#1090=CARTESIAN_POINT('',(-1.4872999746,-2.98729997459995,13.350050561152));
#1091=CARTESIAN_POINT('Origin',(-1.4872999746,-2.98729997459995,13.350050561152));
#1092=CARTESIAN_POINT('',(56.487409194818,-2.98729997459995,13.350050561152));
#1093=CARTESIAN_POINT('Origin',(56.487409194818,-1.98729997459995,13.350050561152));
#1094=UNCERTAINTY_MEASURE_WITH_UNIT(LENGTH_MEASURE(0.01),#1098,
'DISTANCE_ACCURACY_VALUE',
'Maximum model space distance between geometric entities at asserted c
onnectivities');
#1095=UNCERTAINTY_MEASURE_WITH_UNIT(LENGTH_MEASURE(0.01),#1098,
'DISTANCE_ACCURACY_VALUE',
'Maximum model space distance between geometric entities at asserted c
onnectivities');
#1096=(
GEOMETRIC_REPRESENTATION_CONTEXT(3)
GLOBAL_UNCERTAINTY_ASSIGNED_CONTEXT((#1094))
GLOBAL_UNIT_ASSIGNED_CONTEXT((#1098,#1100,#1101))
REPRESENTATION_CONTEXT('','3D')
);
#1097=(
GEOMETRIC_REPRESENTATION_CONTEXT(3)
GLOBAL_UNCERTAINTY_ASSIGNED_CONTEXT((#1095))
GLOBAL_UNIT_ASSIGNED_CONTEXT((#1098,#1100,#1101))
REPRESENTATION_CONTEXT('','3D')
);
#1098=(
LENGTH_UNIT()
NAMED_UNIT(*)
SI_UNIT(.MILLI.,.METRE.)
);
#1099=(
LENGTH_UNIT()
NAMED_UNIT(*)
SI_UNIT($,.METRE.)
);
#1100=(
NAMED_UNIT(*)
PLANE_ANGLE_UNIT()
SI_UNIT($,.RADIAN.)
);
#1101=(
NAMED_UNIT(*)
SI_UNIT($,.STERADIAN.)
SOLID_ANGLE_UNIT()
);
#1102=SHAPE_DEFINITION_REPRESENTATION(#1103,#1104);
#1103=PRODUCT_DEFINITION_SHAPE('',$,#1106);
#1104=SHAPE_REPRESENTATION('',(#688),#1096);
#1105=PRODUCT_DEFINITION_CONTEXT('part definition',#1110,'design');
#1106=PRODUCT_DEFINITION('FusionComponent','FusionComponent',#1107,#1105);
#1107=PRODUCT_DEFINITION_FORMATION('',$,#1112);
#1108=PRODUCT_RELATED_PRODUCT_CATEGORY('FusionComponent',
'FusionComponent',(#1112));
#1109=APPLICATION_PROTOCOL_DEFINITION('international standard',
'automotive_design',2009,#1110);
#1110=APPLICATION_CONTEXT(
'Core Data for Automotive Mechanical Design Process');
#1111=PRODUCT_CONTEXT('part definition',#1110,'mechanical');
#1112=PRODUCT('FusionComponent','FusionComponent',$,(#1111));
#1113=PRESENTATION_STYLE_ASSIGNMENT((#1114));
#1114=SURFACE_STYLE_USAGE(.BOTH.,#1115);
#1115=SURFACE_SIDE_STYLE('',(#1116));
#1116=SURFACE_STYLE_FILL_AREA(#1117);
#1117=FILL_AREA_STYLE('Steel - Satin',(#1118));
#1118=FILL_AREA_STYLE_COLOUR('Steel - Satin',#1119);
#1119=COLOUR_RGB('Steel - Satin',0.627450980392157,0.627450980392157,0.627450980392157);
ENDSEC;
END-ISO-10303-21;
